<?xml version="1.0" encoding="UTF-8"?>
<!DOCTYPE svg PUBLIC "-//W3C//DTD SVG 1.1//EN" "http://www.w3.org/Graphics/SVG/1.1/DTD/svg11.dtd">
<!-- Creator: CorelDRAW -->
<svg xmlns="http://www.w3.org/2000/svg" xml:space="preserve" width="205mm" height="123mm" version="1.1" style="shape-rendering:geometricPrecision; text-rendering:geometricPrecision; image-rendering:optimizeQuality; fill-rule:evenodd; clip-rule:evenodd"
viewBox="0 0 20500 12300"
 xmlns:xlink="http://www.w3.org/1999/xlink"
 xmlns:xodm="http://www.corel.com/coreldraw/odm/2003">
 <defs>
  <style type="text/css">
   <![CDATA[
    .fil2 {fill:none}
    .fil5 {fill:none;fill-rule:nonzero}
    .fil12 {fill:#EDDCB9}
    .fil9 {fill:#0D0D0D}
    .fil3 {fill:white;fill-rule:nonzero}
    .fil11 {fill:url(#id2)}
    .fil4 {fill:url(#id3)}
    .fil7 {fill:url(#id4)}
    .fil8 {fill:url(#id5)}
    .fil0 {fill:url(#id6)}
    .fil10 {fill:url(#id7);fill-rule:nonzero}
    .fil13 {fill:url(#id8);fill-rule:nonzero}
    .fil6 {fill:url(#id9);fill-rule:nonzero}
    .fil1 {fill:url(#id10);fill-rule:nonzero}
   ]]>
  </style>
    <clipPath id="id0">
     <path d="M8765.9 3842.98l280.95 -492.53c97.87,-169.71 792.48,-1318.44 832.06,-1441.26 218.97,70.57 831.07,515.3 967.7,645.09l-368.99 436.48c-128.78,143.95 -234.9,274.19 -363.69,418.15 -131.58,146.97 -241.41,281.2 -373.09,428.47l-363.22 418.6 -297.65 -217.85c-61.53,-41.1 -270.55,-153.75 -314.07,-195.15zm-2149.32 -2632.61c89.77,7.35 380.23,-24.27 569.58,-16.47l580.74 34.56 -98.25 1132.09c-12.68,142.14 -62.25,1008.1 -97.32,1116.86 -147.29,-43.81 -618.08,-43.24 -737.37,-22.11 -8.83,-49.97 -7.95,-90.41 -13.76,-141.24 -29.64,-264.61 -212.71,-1997.18 -203.62,-2103.69zm-2059.16 -663.66c91.7,-26.09 177.61,-65.27 275.37,-98.83l551.38 -167.66c100.12,-26.69 177.18,-45.04 279.01,-62.97 -3.58,71.5 345.43,1605.21 357.15,1654.59l136.1 626.65c14.44,73.06 31.63,125.42 45.99,198.75 56.47,284.2 128.35,546.93 178,827.71 -183.77,32.57 -365.89,96.72 -539.44,161.77 -56.72,21.24 -110.06,49.04 -159.97,63.35l-1123.59 -3203.36zm5105.9 3977.35c139.59,143.19 221.18,248.53 333.65,407 34.91,49.24 67.55,118.73 114.41,148.75 49.55,-14.14 124.1,-70.96 170.01,-102.09l2470.45 -1627.31c34.62,-22.6 56.54,-36.8 88.92,-58 53.54,-35.04 46.44,-12.08 83.03,-68.99 -63.58,-191.36 -540.32,-721.35 -687.38,-907.38l-1288.67 1099.83c-155.86,138.26 -1230.67,1018.82 -1284.42,1108.19zm-1116.45 -4317.69c-44.02,136.59 -77.36,272.07 -100.16,407 -50.52,295.34 -207.88,913.74 -276.27,1238.27 -29.82,141.48 -63.89,276.42 -90.36,401.95 -30.3,144.05 -63.45,290.23 -94.2,418.65l-190.31 838.56c69.27,16.22 76.46,5.16 165.06,33.11 86.92,27.41 123.24,35.48 187.21,46.37 104.03,17.69 236.17,90.7 363.41,131.71 95.07,-294.95 188.52,-520.83 280.79,-810.88l298.14 -806.22c50.23,-120.91 88.91,-280.51 131.83,-408.04l149.81 -401.63c51.4,-159.47 105.63,-263.59 149.63,-402.02 22.74,-71.43 44.88,-142.99 69.24,-213.89 37.69,-110.36 69.51,-141.16 -9.55,-178.8l-489.93 -157.92c-202.41,-65.23 -362.76,-94.12 -544.34,-136.22zm-5183.81 2404.78c51.48,-123.85 788.83,-620.4 919.24,-663.78 75.24,48.58 106.33,174.72 155.63,246.25l475.1 852.93c93.88,174.68 86.76,186.36 202.63,370.24l259.62 489.53c-40.87,32.43 -102.86,65.35 -156.04,100.2 -52.01,34.01 -95.57,60.7 -144.56,93.86 -57.07,38.44 -233.25,173.8 -267.27,230.32 -81.51,-33.86 -488.05,-564.65 -555.04,-649.19 -56.44,-71.09 -113.62,-134.2 -172.18,-208.1l-536.58 -658.45c-46.63,-54.24 -134.76,-174.17 -180.55,-203.81zm-2121.8 746.49c109.91,45.78 246.15,153.2 352.13,219.59l1070.25 681.48c89.54,59.88 1364.12,877.13 1444,904.7 7.6,-21.92 18.84,-45.9 32.77,-71.24l4.43 -12.47 1.03 -2.65c54.4,-139.88 136.44,-248.03 241.8,-322.24 74.2,-90.29 136.95,-165.21 150.24,-197.24l-654.01 -524.21c-106.66,-88.81 -214.73,-173.2 -323.53,-263.9 -156.2,-130.3 -1585.33,-1303.8 -1668.2,-1338.11 -26.35,63.86 -580.08,722.65 -650.91,926.29zm281.19 2167.62l-28.57 88.7c168,54.14 385.05,119.23 549.11,145.95 229.24,37.72 869.78,230.16 1086.19,268.92l558.34 135.26c33.73,-144.16 60,-289.82 125.93,-448.25 116.46,-279.24 175.61,-228.85 -122.84,-353.63 -378.76,-158.54 -1553.32,-736.24 -1812.19,-819.67 -126,209.88 -271.98,722.19 -355.97,982.72zm-1260.68 749.81l3351.7 300.92 -260.91 734.67c-454.2,7.98 -1343,51.74 -1435.86,54.13l-1486 50.05c-73.1,0.45 -144.86,9.86 -204.92,4.76 18.08,-213.63 -50.64,-875.74 35.99,-1144.53zm1197.68 1706.64l1747.32 -260.5 -353.41 995.16c-483.69,168.16 -973.43,337.72 -1083.34,357.12 -84.24,-106.52 -325.24,-938.75 -310.57,-1091.78zm-289.19 2465.91c37.82,132.59 528.48,804.2 658,937.13 217.81,-172.08 425.9,-364.03 643.7,-537.04l321.07 -269.83c299.34,-262.33 628.6,-527.35 945.43,-789.16l-1265.93 0 89.08 -250.84 -1391.35 909.74zm2818.02 -867.41c90.9,-76.84 179.73,-153.28 265.39,-229.13 58.32,-51.74 121.56,-86.7 159.83,-150.66 -89.61,-92.06 -156.14,-194.39 -217.3,-292.33l-207.92 672.12z"/>
    </clipPath>
    <clipPath id="id1" style="clip-rule:nonzero">
     <path d="M19889.34 9597.83l-1109.95 0 -652 -1164.36 -679.21 1164.36 -1122.97 0 1206.98 -1898.02 -1137.17 -1787.97 1067.36 0 637.8 1108.76c352.48,-593.57 896.62,-1355.48 1193.95,-1938.27l982.74 62.12 -1608.69 2568.38 1221.16 1885zm-3883.15 -3685.26c105.2,11.73 197.56,56.84 277.08,135.34 92.29,92.31 138.44,203.53 138.44,332.51l0 3217.41 -972.69 0 0 -2525.36c248.36,-412.6 446.57,-815.76 557.17,-1159.9zm-6309.1 1463.01l0 624.8c9.46,288.72 78.09,502.9 208.25,642.53 119.52,149.09 300.56,223.64 540.77,223.64 157.39,0 291.11,-33.12 402.32,-98.21 27.23,-8.28 53.26,-24.85 75.74,-48.52 23.66,-22.48 48.52,-48.51 76.92,-76.91 8.28,-27.21 43.78,-65.09 102.94,-111.24 60.35,-46.15 146.73,-69.81 256.78,-69.81l693.42 0c-101.77,388.12 -295.83,683.96 -582.19,887.48 -286.36,213 -647.27,319.49 -1081.54,319.49 -526.57,0 -939.55,-171.57 -1235.38,-513.56 -297,-332.49 -444.92,-808.19 -444.92,-1428.24 0,-591.65 143.18,-1053.16 430.74,-1385.64 297,-341.99 708.78,-513.56 1235.36,-513.56 554.97,0 984.51,165.65 1289.8,498.17 295.83,340.78 443.75,816.48 443.75,1425.87 0,36.69 0,68.64 0,95.85 0,28.4 0,46.15 0,55.63 0,46.13 -4.74,78.08 -14.21,97.03l-2192.9 0 0 -624.8 1208.4 0c-17.76,-248.49 -82.83,-433.08 -194.06,-552.6 -119.52,-128.98 -291.1,-192.87 -512.38,-192.87 -203.53,0 -370.37,63.89 -499.36,192.87 -116.17,115.12 -183.34,274.59 -203.15,477.49 -2.5,24.91 -4.11,50.08 -5.1,75.11zm-2375.44 2222.25l0 -3800.77c0,-332.52 87.56,-582.19 263.86,-749.04 166.86,-157.38 439.02,-235.48 818.86,-235.48 92.29,0 166.86,4.74 222.46,14.21 101.77,0 179.86,4.72 235.49,14.2l0 759.68 -249.7 0c-128.97,0 -222.45,18.93 -276.88,55.6 -46.16,37.88 -69.82,112.42 -69.82,224.84l0 252.05 596.4 0 0 208.27c0,139.62 -46.16,253.21 -138.46,340.78 -92.29,88.74 -198.79,132.53 -319.49,132.53l-138.45 0 0 2783.13 -944.27 0zm-2304.45 -3813.79l-666.2 2024.64 1331.22 0 -665.02 -2024.64zm-222.46 -957.29l777.44 0 1732.35 4771.08 -1038.94 0 -319.49 -986.87 -1857.79 0 -305.29 986.87 -1040.13 0 1580.89 -4451.59c82.84,-213 240.22,-319.49 470.96,-319.49z"/>
    </clipPath>
  <linearGradient id="id2" gradientUnits="userSpaceOnUse" x1="16572.86" y1="5555.68" x2="17003.08" y2="5555.68">
   <stop offset="0" style="stop-opacity:1; stop-color:#FFCB05"/>
   <stop offset="1" style="stop-opacity:1; stop-color:#F78E1E"/>
  </linearGradient>
  <linearGradient id="id3" gradientUnits="userSpaceOnUse" xlink:href="#id2" x1="5273.12" y1="6256.83" x2="6336.81" y2="6256.83">
  </linearGradient>
  <linearGradient id="id4" gradientUnits="userSpaceOnUse" xlink:href="#id2" x1="6043.63" y1="7628.92" x2="6222.7" y2="7628.92">
  </linearGradient>
  <linearGradient id="id5" gradientUnits="userSpaceOnUse" xlink:href="#id2" x1="10223.25" y1="7237.85" x2="14908.64" y2="8704.98">
  </linearGradient>
  <linearGradient id="id6" gradientUnits="userSpaceOnUse" x1="1152.1" y1="5576.72" x2="13880.63" y2="2256.24">
   <stop offset="0" style="stop-opacity:1; stop-color:#F78E1E"/>
   <stop offset="1" style="stop-opacity:1; stop-color:#FFCB05"/>
  </linearGradient>
  <linearGradient id="id7" gradientUnits="userSpaceOnUse" x1="15433.94" y1="5356.72" x2="16163.85" y2="5356.72">
   <stop offset="0" style="stop-opacity:1; stop-color:#B12923"/>
   <stop offset="1" style="stop-opacity:1; stop-color:#7A0000"/>
  </linearGradient>
  <linearGradient id="id8" gradientUnits="userSpaceOnUse" xlink:href="#id7" x1="2742.89" y1="8607.49" x2="4042.93" y2="8607.49">
  </linearGradient>
  <linearGradient id="id9" gradientUnits="userSpaceOnUse" xlink:href="#id7" x1="12128.13" y1="7712.83" x2="15344.36" y2="7712.83">
  </linearGradient>
  <linearGradient id="id10" gradientUnits="userSpaceOnUse" x1="4745.4" y1="9344.09" x2="6228.75" y2="4855.26">
   <stop offset="0" style="stop-opacity:1; stop-color:#7A0000"/>
   <stop offset="1" style="stop-opacity:1; stop-color:#B12923"/>
  </linearGradient>
 </defs>
 <g id="Camada_x0020_1">
  <metadata id="CorelCorpID_0Corel-Layer"/>
  <g id="_2284402193792">
   <path class="fil0" d="M8765.9 3842.98l280.95 -492.53c97.87,-169.71 792.48,-1318.44 832.06,-1441.26 218.97,70.57 831.07,515.3 967.7,645.09l-368.99 436.48c-128.78,143.95 -234.9,274.19 -363.69,418.15 -131.58,146.97 -241.41,281.2 -373.09,428.47l-363.22 418.6 -297.65 -217.85c-61.53,-41.1 -270.55,-153.75 -314.07,-195.15zm-2149.32 -2632.61c89.77,7.35 380.23,-24.27 569.58,-16.47l580.74 34.56 -98.25 1132.09c-12.68,142.14 -62.25,1008.1 -97.32,1116.86 -147.29,-43.81 -618.08,-43.24 -737.37,-22.11 -8.83,-49.97 -7.95,-90.41 -13.76,-141.24 -29.64,-264.61 -212.71,-1997.18 -203.62,-2103.69zm-2059.16 -663.66c91.7,-26.09 177.61,-65.27 275.37,-98.83l551.38 -167.66c100.12,-26.69 177.18,-45.04 279.01,-62.97 -3.58,71.5 345.43,1605.21 357.15,1654.59l136.1 626.65c14.44,73.06 31.63,125.42 45.99,198.75 56.47,284.2 128.35,546.93 178,827.71 -183.77,32.57 -365.89,96.72 -539.44,161.77 -56.72,21.24 -110.06,49.04 -159.97,63.35l-1123.59 -3203.36zm5105.9 3977.35c139.59,143.19 221.18,248.53 333.65,407 34.91,49.24 67.55,118.73 114.41,148.75 49.55,-14.14 124.1,-70.96 170.01,-102.09l2470.45 -1627.31c34.62,-22.6 56.54,-36.8 88.92,-58 53.54,-35.04 46.44,-12.08 83.03,-68.99 -63.58,-191.36 -540.32,-721.35 -687.38,-907.38l-1288.67 1099.83c-155.86,138.26 -1230.67,1018.82 -1284.42,1108.19zm-1116.45 -4317.69c-44.02,136.59 -77.36,272.07 -100.16,407 -50.52,295.34 -207.88,913.74 -276.27,1238.27 -29.82,141.48 -63.89,276.42 -90.36,401.95 -30.3,144.05 -63.45,290.23 -94.2,418.65l-190.31 838.56c69.27,16.22 76.46,5.16 165.06,33.11 86.92,27.41 123.24,35.48 187.21,46.37 104.03,17.69 236.17,90.7 363.41,131.71 95.07,-294.95 188.52,-520.83 280.79,-810.88l298.14 -806.22c50.23,-120.91 88.91,-280.51 131.83,-408.04l149.81 -401.63c51.4,-159.47 105.63,-263.59 149.63,-402.02 22.74,-71.43 44.88,-142.99 69.24,-213.89 37.69,-110.36 69.51,-141.16 -9.55,-178.8l-489.93 -157.92c-202.41,-65.23 -362.76,-94.12 -544.34,-136.22zm-5183.81 2404.78c51.48,-123.85 788.83,-620.4 919.24,-663.78 75.24,48.58 106.33,174.72 155.63,246.25l475.1 852.93c93.88,174.68 86.76,186.36 202.63,370.24l259.62 489.53c-40.87,32.43 -102.86,65.35 -156.04,100.2 -52.01,34.01 -95.57,60.7 -144.56,93.86 -57.07,38.44 -233.25,173.8 -267.27,230.32 -81.51,-33.86 -488.05,-564.65 -555.04,-649.19 -56.44,-71.09 -113.62,-134.2 -172.18,-208.1l-536.58 -658.45c-46.63,-54.24 -134.76,-174.17 -180.55,-203.81zm-2121.8 746.49c109.91,45.78 246.15,153.2 352.13,219.59l1070.25 681.48c89.54,59.88 1364.12,877.13 1444,904.7 7.6,-21.92 18.84,-45.9 32.77,-71.24l4.43 -12.47 1.03 -2.65c54.4,-139.88 136.44,-248.03 241.8,-322.24 74.2,-90.29 136.95,-165.21 150.24,-197.24l-654.01 -524.21c-106.66,-88.81 -214.73,-173.2 -323.53,-263.9 -156.2,-130.3 -1585.33,-1303.8 -1668.2,-1338.11 -26.35,63.86 -580.08,722.65 -650.91,926.29zm281.19 2167.62l-28.57 88.7c168,54.14 385.05,119.23 549.11,145.95 229.24,37.72 869.78,230.16 1086.19,268.92l558.34 135.26c33.73,-144.16 60,-289.82 125.93,-448.25 116.46,-279.24 175.61,-228.85 -122.84,-353.63 -378.76,-158.54 -1553.32,-736.24 -1812.19,-819.67 -126,209.88 -271.98,722.19 -355.97,982.72zm-1260.68 749.81l3351.7 300.92 -260.91 734.67c-454.2,7.98 -1343,51.74 -1435.86,54.13l-1486 50.05c-73.1,0.45 -144.86,9.86 -204.92,4.76 18.08,-213.63 -50.64,-875.74 35.99,-1144.53zm1197.68 1706.64l1747.32 -260.5 -353.41 995.16c-483.69,168.16 -973.43,337.72 -1083.34,357.12 -84.24,-106.52 -325.24,-938.75 -310.57,-1091.78zm-289.19 2465.91c37.82,132.59 528.48,804.2 658,937.13 217.81,-172.08 425.9,-364.03 643.7,-537.04l321.07 -269.83c299.34,-262.33 628.6,-527.35 945.43,-789.16l-1265.93 0 89.08 -250.84 -1391.35 909.74zm2818.02 -867.41c90.9,-76.84 179.73,-153.28 265.39,-229.13 58.32,-51.74 121.56,-86.7 159.83,-150.66 -89.61,-92.06 -156.14,-194.39 -217.3,-292.33l-207.92 672.12z"/>
   <g style="clip-path:url(#id0)">
    <g>
     <ellipse class="fil1" cx="6622.27" cy="7252.97" rx="4073.41" ry="4382"/>
    </g>
   </g>
   <path class="fil2" d="M8765.9 3842.98l280.95 -492.53c97.87,-169.71 792.48,-1318.44 832.06,-1441.26 218.97,70.57 831.07,515.3 967.7,645.09l-368.99 436.48c-128.78,143.95 -234.9,274.19 -363.69,418.15 -131.58,146.97 -241.41,281.2 -373.09,428.47l-363.22 418.6 -297.65 -217.85c-61.53,-41.1 -270.55,-153.75 -314.07,-195.15zm-2149.32 -2632.61c89.77,7.35 380.23,-24.27 569.58,-16.47l580.74 34.56 -98.25 1132.09c-12.68,142.14 -62.25,1008.1 -97.32,1116.86 -147.29,-43.81 -618.08,-43.24 -737.37,-22.11 -8.83,-49.97 -7.95,-90.41 -13.76,-141.24 -29.64,-264.61 -212.71,-1997.18 -203.62,-2103.69zm-2059.16 -663.66c91.7,-26.09 177.61,-65.27 275.37,-98.83l551.38 -167.66c100.12,-26.69 177.18,-45.04 279.01,-62.97 -3.58,71.5 345.43,1605.21 357.15,1654.59l136.1 626.65c14.44,73.06 31.63,125.42 45.99,198.75 56.47,284.2 128.35,546.93 178,827.71 -183.77,32.57 -365.89,96.72 -539.44,161.77 -56.72,21.24 -110.06,49.04 -159.97,63.35l-1123.59 -3203.36zm5105.9 3977.35c139.59,143.19 221.18,248.53 333.65,407 34.91,49.24 67.55,118.73 114.41,148.75 49.55,-14.14 124.1,-70.96 170.01,-102.09l2470.45 -1627.31c34.62,-22.6 56.54,-36.8 88.92,-58 53.54,-35.04 46.44,-12.08 83.03,-68.99 -63.58,-191.36 -540.32,-721.35 -687.38,-907.38l-1288.67 1099.83c-155.86,138.26 -1230.67,1018.82 -1284.42,1108.19zm-1116.45 -4317.69c-44.02,136.59 -77.36,272.07 -100.16,407 -50.52,295.34 -207.88,913.74 -276.27,1238.27 -29.82,141.48 -63.89,276.42 -90.36,401.95 -30.3,144.05 -63.45,290.23 -94.2,418.65l-190.31 838.56c69.27,16.22 76.46,5.16 165.06,33.11 86.92,27.41 123.24,35.48 187.21,46.37 104.03,17.69 236.17,90.7 363.41,131.71 95.07,-294.95 188.52,-520.83 280.79,-810.88l298.14 -806.22c50.23,-120.91 88.91,-280.51 131.83,-408.04l149.81 -401.63c51.4,-159.47 105.63,-263.59 149.63,-402.02 22.74,-71.43 44.88,-142.99 69.24,-213.89 37.69,-110.36 69.51,-141.16 -9.55,-178.8l-489.93 -157.92c-202.41,-65.23 -362.76,-94.12 -544.34,-136.22zm-5183.81 2404.78c51.48,-123.85 788.83,-620.4 919.24,-663.78 75.24,48.58 106.33,174.72 155.63,246.25l475.1 852.93c93.88,174.68 86.76,186.36 202.63,370.24l259.62 489.53c-40.87,32.43 -102.86,65.35 -156.04,100.2 -52.01,34.01 -95.57,60.7 -144.56,93.86 -57.07,38.44 -233.25,173.8 -267.27,230.32 -81.51,-33.86 -488.05,-564.65 -555.04,-649.19 -56.44,-71.09 -113.62,-134.2 -172.18,-208.1l-536.58 -658.45c-46.63,-54.24 -134.76,-174.17 -180.55,-203.81zm-2121.8 746.49c109.91,45.78 246.15,153.2 352.13,219.59l1070.25 681.48c89.54,59.88 1364.12,877.13 1444,904.7 7.6,-21.92 18.84,-45.9 32.77,-71.24l4.43 -12.47 1.03 -2.65c54.4,-139.88 136.44,-248.03 241.8,-322.24 74.2,-90.29 136.95,-165.21 150.24,-197.24l-654.01 -524.21c-106.66,-88.81 -214.73,-173.2 -323.53,-263.9 -156.2,-130.3 -1585.33,-1303.8 -1668.2,-1338.11 -26.35,63.86 -580.08,722.65 -650.91,926.29zm281.19 2167.62l-28.57 88.7c168,54.14 385.05,119.23 549.11,145.95 229.24,37.72 869.78,230.16 1086.19,268.92l558.34 135.26c33.73,-144.16 60,-289.82 125.93,-448.25 116.46,-279.24 175.61,-228.85 -122.84,-353.63 -378.76,-158.54 -1553.32,-736.24 -1812.19,-819.67 -126,209.88 -271.98,722.19 -355.97,982.72zm-1260.68 749.81l3351.7 300.92 -260.91 734.67c-454.2,7.98 -1343,51.74 -1435.86,54.13l-1486 50.05c-73.1,0.45 -144.86,9.86 -204.92,4.76 18.08,-213.63 -50.64,-875.74 35.99,-1144.53zm1197.68 1706.64l1747.32 -260.5 -353.41 995.16c-483.69,168.16 -973.43,337.72 -1083.34,357.12 -84.24,-106.52 -325.24,-938.75 -310.57,-1091.78zm-289.19 2465.91c37.82,132.59 528.48,804.2 658,937.13 217.81,-172.08 425.9,-364.03 643.7,-537.04l321.07 -269.83c299.34,-262.33 628.6,-527.35 945.43,-789.16l-1265.93 0 89.08 -250.84 -1391.35 909.74zm2818.02 -867.41c90.9,-76.84 179.73,-153.28 265.39,-229.13 58.32,-51.74 121.56,-86.7 159.83,-150.66 -89.61,-92.06 -156.14,-194.39 -217.3,-292.33l-207.92 672.12z"/>
   <path class="fil3" d="M19889.34 9597.83l-1109.95 0 -652 -1164.36 -679.21 1164.36 -1122.97 0 1206.98 -1898.02 -1137.17 -1787.97 1067.36 0 637.8 1108.76c352.48,-593.57 896.62,-1355.48 1193.95,-1938.27l982.74 62.12 -1608.69 2568.38 1221.16 1885zm-3883.15 -3685.26c105.2,11.73 197.56,56.84 277.08,135.34 92.29,92.31 138.44,203.53 138.44,332.51l0 3217.41 -972.69 0 0 -2525.36c248.36,-412.6 446.57,-815.76 557.17,-1159.9zm-6309.1 1463.01l0 624.8c9.46,288.72 78.09,502.9 208.25,642.53 119.52,149.09 300.56,223.64 540.77,223.64 157.39,0 291.11,-33.12 402.32,-98.21 27.23,-8.28 53.26,-24.85 75.74,-48.52 23.66,-22.48 48.52,-48.51 76.92,-76.91 8.28,-27.21 43.78,-65.09 102.94,-111.24 60.35,-46.15 146.73,-69.81 256.78,-69.81l693.42 0c-101.77,388.12 -295.83,683.96 -582.19,887.48 -286.36,213 -647.27,319.49 -1081.54,319.49 -526.57,0 -939.55,-171.57 -1235.38,-513.56 -297,-332.49 -444.92,-808.19 -444.92,-1428.24 0,-591.65 143.18,-1053.16 430.74,-1385.64 297,-341.99 708.78,-513.56 1235.36,-513.56 554.97,0 984.51,165.65 1289.8,498.17 295.83,340.78 443.75,816.48 443.75,1425.87 0,36.69 0,68.64 0,95.85 0,28.4 0,46.15 0,55.63 0,46.13 -4.74,78.08 -14.21,97.03l-2192.9 0 0 -624.8 1208.4 0c-17.76,-248.49 -82.83,-433.08 -194.06,-552.6 -119.52,-128.98 -291.1,-192.87 -512.38,-192.87 -203.53,0 -370.37,63.89 -499.36,192.87 -116.17,115.12 -183.34,274.59 -203.15,477.49 -2.5,24.91 -4.11,50.08 -5.1,75.11zm-2375.44 2222.25l0 -3800.77c0,-332.52 87.56,-582.19 263.86,-749.04 166.86,-157.38 439.02,-235.48 818.86,-235.48 92.29,0 166.86,4.74 222.46,14.21 101.77,0 179.86,4.72 235.49,14.2l0 759.68 -249.7 0c-128.97,0 -222.45,18.93 -276.88,55.6 -46.16,37.88 -69.82,112.42 -69.82,224.84l0 252.05 596.4 0 0 208.27c0,139.62 -46.16,253.21 -138.46,340.78 -92.29,88.74 -198.79,132.53 -319.49,132.53l-138.45 0 0 2783.13 -944.27 0zm-2304.45 -3813.79l-666.2 2024.64 1331.22 0 -665.02 -2024.64zm-222.46 -957.29l777.44 0 1732.35 4771.08 -1038.94 0 -319.49 -986.87 -1857.79 0 -305.29 986.87 -1040.13 0 1580.89 -4451.59c82.84,-213 240.22,-319.49 470.96,-319.49z"/>
   <g style="clip-path:url(#id1)">
    <g>
     <path id="_1" class="fil4" d="M6136.42 7419.01c-7.07,-9.51 -14.74,-19.95 -23.34,-31.31 -68.76,-92.71 -125.86,-168.84 -187.87,-267.38 -106.53,-170.07 -220.11,-430.08 -281.5,-648.34 -66.61,-236.06 -123.4,-538.75 -130.47,-779.72 -6.45,-218.88 18.42,-723.86 79.81,-851.56 -39.91,-19.34 -188.18,-74.9 -237.29,-79.19 -1.84,82.57 -27.94,167.6 -42.67,254.18 -52.49,308.52 -48.5,583.57 -11.36,888.08 63.54,519.11 229.92,979.88 477.97,1401.98l172.83 260.62c-5.22,18.11 -7.98,37.46 -7.98,57.41 0,113.28 88.11,204.76 197.08,204.76 108.66,0 197.07,-91.79 197.07,-204.76 0,-113.27 -88.11,-204.76 -197.07,-204.76 -1.84,-0.01 -3.68,-0.01 -5.21,-0.01l0 0z"/>
    </g>
   </g>
   <path class="fil5" d="M19889.34 9597.83l-1109.95 0 -652 -1164.36 -679.21 1164.36 -1122.97 0 1206.98 -1898.02 -1137.17 -1787.97 1067.36 0 637.8 1108.76c352.48,-593.57 896.62,-1355.48 1193.95,-1938.27l982.74 62.12 -1608.69 2568.38 1221.16 1885zm-3883.15 -3685.26c105.2,11.73 197.56,56.84 277.08,135.34 92.29,92.31 138.44,203.53 138.44,332.51l0 3217.41 -972.69 0 0 -2525.36c248.36,-412.6 446.57,-815.76 557.17,-1159.9zm-6309.1 1463.01l0 624.8c9.46,288.72 78.09,502.9 208.25,642.53 119.52,149.09 300.56,223.64 540.77,223.64 157.39,0 291.11,-33.12 402.32,-98.21 27.23,-8.28 53.26,-24.85 75.74,-48.52 23.66,-22.48 48.52,-48.51 76.92,-76.91 8.28,-27.21 43.78,-65.09 102.94,-111.24 60.35,-46.15 146.73,-69.81 256.78,-69.81l693.42 0c-101.77,388.12 -295.83,683.96 -582.19,887.48 -286.36,213 -647.27,319.49 -1081.54,319.49 -526.57,0 -939.55,-171.57 -1235.38,-513.56 -297,-332.49 -444.92,-808.19 -444.92,-1428.24 0,-591.65 143.18,-1053.16 430.74,-1385.64 297,-341.99 708.78,-513.56 1235.36,-513.56 554.97,0 984.51,165.65 1289.8,498.17 295.83,340.78 443.75,816.48 443.75,1425.87 0,36.69 0,68.64 0,95.85 0,28.4 0,46.15 0,55.63 0,46.13 -4.74,78.08 -14.21,97.03l-2192.9 0 0 -624.8 1208.4 0c-17.76,-248.49 -82.83,-433.08 -194.06,-552.6 -119.52,-128.98 -291.1,-192.87 -512.38,-192.87 -203.53,0 -370.37,63.89 -499.36,192.87 -116.17,115.12 -183.34,274.59 -203.15,477.49 -2.5,24.91 -4.11,50.08 -5.1,75.11zm-2375.44 2222.25l0 -3800.77c0,-332.52 87.56,-582.19 263.86,-749.04 166.86,-157.38 439.02,-235.48 818.86,-235.48 92.29,0 166.86,4.74 222.46,14.21 101.77,0 179.86,4.72 235.49,14.2l0 759.68 -249.7 0c-128.97,0 -222.45,18.93 -276.88,55.6 -46.16,37.88 -69.82,112.42 -69.82,224.84l0 252.05 596.4 0 0 208.27c0,139.62 -46.16,253.21 -138.46,340.78 -92.29,88.74 -198.79,132.53 -319.49,132.53l-138.45 0 0 2783.13 -944.27 0zm-2304.45 -3813.79l-666.2 2024.64 1331.22 0 -665.02 -2024.64zm-222.46 -957.29l777.44 0 1732.35 4771.08 -1038.94 0 -319.49 -986.87 -1857.79 0 -305.29 986.87 -1040.13 0 1580.89 -4451.59c82.84,-213 240.22,-319.49 470.96,-319.49z"/>
   <path class="fil6" d="M15344.36 9597.83l-486.34 0c-138.45,0 -252.05,-43.78 -339.61,-131.35 -88.74,-88.75 -132.53,-201.16 -132.53,-340.78l0 -593.49c338.71,-388.97 671.93,-836.81 953.45,-1281.98 3.33,59.78 5.03,121.66 5.03,185.71l0 2161.89zm-958.48 -2231.52l0 -126.8c0,-221.28 -66.26,-383.4 -199.98,-485.17 -133.7,-101.76 -284,-152.64 -449.65,-152.64 -165.66,0 -312.4,50.88 -441.38,152.64 -128.98,101.77 -194.06,263.89 -194.06,485.17l0 1617.69c-113.14,90.63 -231.09,177.21 -343.82,257 -112.39,79.54 -227.62,156.71 -345.88,227.27 -84.64,50.5 -180.85,105.14 -273.4,139.38l-9.58 3.6 0 -2048.51c0,-628.35 164.48,-1049.6 492.25,-1261.41 327.78,-213 691.06,-327.77 1088.65,-346.7 405.88,0 780.98,106.49 1122.96,318.31 69.42,43.23 131.76,95.38 187.04,156.47 -177.54,348.27 -397.62,715.53 -633.15,1063.7z"/>
   <path class="fil7" d="M6133.37 7537.92c49.73,0 89.64,41.75 89.64,93.32 0,51.57 -40.21,93.32 -89.64,93.32 -49.43,0 -89.64,-41.75 -89.64,-93.32 0,-51.57 39.91,-93.32 89.64,-93.32l0 0z"/>
   <path class="fil8" d="M9440.78 9746.33c2.98,3.83 10.28,4.18 10.58,10.39 1.11,18.04 1078.91,786.9 2747.14,160.24 441.08,-165.56 768.61,-358.93 1140.82,-626.15 888.21,-638.02 2191.2,-2388.57 2518.35,-3486.53 86.25,-289.83 159.6,-43.31 268.76,-391.92 72.56,-231.73 -225.04,-502.8 -492.08,-367.03 -63.86,32.43 -127.41,93.6 -156.03,185 -83.57,266.89 54.98,287.74 37.55,343.41 -309.87,989.58 -1322.81,2506.28 -2052.43,3199.43 -264.54,251.07 -929.58,746.67 -1265.37,870.86 -104.06,38.51 -235.54,112.18 -466.56,194.56 -172.47,61.8 -505.47,148.29 -688.21,163.76 -382.24,32.14 -797.41,31.78 -1180.37,-80.73 -127.78,-37.77 -295.89,-135.76 -422.15,-175.29z"/>
   <path class="fil9" d="M8244.51 10472.91c4.29,22.71 43.59,43.28 26.71,3.99 -7.06,-16.58 -36.23,-55.27 -26.71,-3.99z"/>
   <circle class="fil10" cx="15798.9" cy="5356.72" r="364.95"/>
   <path class="fil3" d="M5180.45 10875.91l266.1 0 -2.81 920.14 71.44 0 2.79 -920.14 266.1 0 0 -61.62 -603.62 0 0 61.62zm638.63 413.16c0,-54.63 47.62,-91.04 107.84,-107.84 53.22,-14.01 113.44,-14.01 166.66,0 124.64,35.01 147.04,203.07 28,259.1 -93.83,44.81 -242.28,29.4 -302.5,32.2l0 -183.46zm0 245.08c93.84,0 238.09,19.62 336.12,-33.61 169.46,-89.63 138.65,-331.92 -43.42,-386.54 -65.82,-18.2 -137.24,-18.2 -203.08,0 -91.02,25.22 -161.05,82.64 -161.05,175.07l0 310.91c0,39.21 8.41,74.22 30.82,106.43 36.41,49.03 100.83,81.24 172.25,92.44 42.02,7 79.83,5.6 121.85,-1.4 71.42,-11.2 140.05,-39.22 180.66,-105.04l-60.21 -36.41 0 0 0 0c-30.81,43.42 -78.43,64.43 -130.25,71.42 -37.82,7.01 -72.83,7.01 -110.65,0 -49.01,-8.4 -92.43,-30.81 -116.24,-63.02 -12.6,-18.2 -16.8,-36.41 -16.8,-58.82l0 -71.43zm1029.38 81.24c0,56.02 -47.62,92.43 -107.85,109.24l-1.39 0c-51.82,14 -114.85,14 -166.66,0 -53.23,-15.41 -107.84,-49.03 -107.84,-112.05l0 -319.31c0,-63.02 56.02,-96.63 107.84,-110.64l0 0c26.61,-7 54.61,-11.21 84.03,-11.21 28,0 57.41,4.21 82.63,11.21 61.62,16.8 109.24,53.22 109.24,109.24l70.02 0c0,-93.84 -70.02,-151.26 -159.66,-176.47 -33.62,-8.4 -68.63,-14 -102.23,-14 -35.02,0 -70.03,5.6 -102.25,14l0 0c-85.42,23.82 -159.65,81.24 -159.65,176.47l0 320.71c0,96.64 72.82,155.46 159.65,179.27 65.84,16.81 138.66,16.81 204.48,0l0 -1.4c89.64,-23.81 159.66,-82.63 159.66,-175.06l-70.02 0zm725.46 180.66l0 -499.98c0,-137.25 -133.06,-198.87 -263.31,-197.48 -65.82,0 -138.64,16.81 -190.46,72.83l0 -64.42 -71.42 0 0 689.05 71.42 0 0 -490.17c0,-95.24 96.63,-138.66 191.87,-138.66 95.24,0 190.46,44.82 190.46,127.45l0 501.38 71.44 0zm495.77 -77.03c-49.02,16.81 -102.23,19.61 -154.05,11.21 -72.83,-12.61 -135.85,-53.22 -135.85,-116.25l0 -324.91c0,-56.02 47.62,-91.04 107.83,-107.84 26.62,-7 54.62,-11.2 84.04,-11.2 29.4,0 57.42,4.2 84.03,11.2 60.22,16.8 107.84,53.21 107.84,107.84l0 0 0 324.91c0,50.42 -40.62,86.83 -93.84,105.04zm163.86 -429.95l0 0c0,-92.43 -70.02,-151.26 -159.66,-175.07 -32.21,-9.8 -67.22,-14 -102.23,-14 -35.01,0 -68.63,4.2 -102.24,14 -89.63,23.81 -159.66,82.64 -159.66,175.07l0 324.91c0,105.04 89.63,165.26 194.67,183.47 63.03,9.81 127.44,7 187.67,-12.61 81.23,-28 141.45,-84.03 141.45,-170.86l0 -324.91zm310.91 449.56c-72.83,0 -102.24,-16.81 -102.24,-89.64l0 -834.7 -70.03 0 0 833.31c0,124.65 57.42,161.06 172.27,154.05l0 -63.02zm460.76 -19.61c-49.02,16.81 -102.23,19.61 -154.05,11.21 -72.83,-12.61 -135.85,-53.22 -135.85,-116.25l0 -324.91c0,-56.02 47.62,-91.04 107.84,-107.84 26.61,-7 54.61,-11.2 84.03,-11.2 29.4,0 57.42,4.2 84.03,11.2 60.22,16.8 107.84,53.21 107.84,107.84l0 0 0 324.91c0,50.42 -40.62,86.83 -93.84,105.04zm163.86 -429.95l0 0c0,-92.43 -70.02,-151.26 -159.66,-175.07 -32.21,-9.8 -67.22,-14 -102.23,-14 -35.01,0 -68.63,4.2 -102.24,14 -89.63,23.81 -159.66,82.64 -159.66,175.07l0 324.91c0,105.04 89.63,165.26 194.67,183.47 63.03,9.81 127.45,7 187.67,-12.61 81.23,-28 141.45,-84.03 141.45,-170.86l0 -324.91zm497.17 302.5c-22.41,7.01 -46.21,11.21 -71.42,14.01 -25.21,1.4 -50.41,1.4 -74.23,-2.8l0 0c-77.03,-11.21 -142.85,-49.01 -142.85,-114.85l0 -200.26c0,-54.62 46.22,-91.03 107.84,-107.84 25.21,-7.01 53.22,-9.8 82.63,-9.8 29.41,0 57.42,2.79 84.03,9.8 60.22,16.81 107.84,53.22 107.84,107.84l0 0 0 200.26c0,50.43 -40.61,85.44 -93.84,103.64zm79.84 -446.75c-22.41,-14.01 -47.62,-25.22 -75.64,-32.21 -32.2,-9.81 -67.22,-14.02 -102.23,-14.02 -33.62,0 -68.63,4.21 -102.23,14.02 -89.64,23.8 -159.67,82.63 -159.67,175.06l0 200.26c0,64.43 33.62,113.46 85.44,144.27 -5.61,2.79 -11.21,6.99 -15.41,11.19 -60.22,50.43 -36.41,147.06 67.22,163.87 110.65,18.2 309.51,-36.42 309.51,102.23l0 0 0 25.21c0,50.42 -26.61,70.03 -79.82,88.23 -49.02,16.81 -131.65,21.01 -196.07,1.4 -49.02,-15.4 -88.23,-39.21 -92.44,-88.23 -2.8,-19.6 -1.39,-43.42 4.21,-63.02l-70.03 0c-7.01,21 -7.01,44.82 -5.6,67.22 5.6,88.23 67.22,133.06 149.85,151.26 37.82,9.8 77.03,12.61 116.25,12.61 37.81,0 78.43,-2.81 113.44,-14.02 79.83,-22.4 131.65,-68.61 131.65,-155.45l0 -25.21 0 0c0,-211.47 -228.29,-145.65 -362.73,-168.05 -64.43,-11.21 -47.62,-75.64 11.19,-75.64 11.21,2.81 23.82,5.61 36.41,7.01l1.41 0c29.41,4.2 60.22,5.6 89.63,2.79 30.81,-1.4 60.22,-8.39 88.24,-16.8 81.22,-28.01 141.45,-84.03 141.45,-170.87l0 -200.26 0 0c0,-37.82 -11.21,-70.02 -30.82,-96.63l49.02 -51.82 -53.22 -46.22 -49.01 51.82zm246.48 -205.88l79.82 0 0 -124.65 -79.82 0 0 124.65zm4.2 857.11l71.42 0 0 -686.25 -71.42 0 0 686.25zm640.02 -411.75c-138.64,-26.6 -277.29,-18.2 -364.13,40.62 -142.85,93.82 -120.43,323.51 70.03,375.33 33.61,8.41 68.63,14 102.23,14 68.63,0 144.25,-14 204.48,-72.81 21.01,43.4 67.23,60.21 126.04,56.01l0 -63.02c-35.01,0 -68.61,-14 -68.61,-65.82l0 -368.33c0,-37.82 -7.01,-72.83 -29.42,-105.04 -92.43,-127.46 -392.14,-120.45 -474.77,12.59l60.22 37.82c29.42,-43.42 78.43,-64.42 128.84,-72.83 39.22,-5.6 72.83,-6.99 110.65,0 50.41,9.81 93.83,30.81 117.64,64.43 12.6,16.8 16.8,36.42 16.8,57.42l0 89.63zm0 240.89c0,89.64 -119.04,117.64 -191.87,117.64 -29.4,0 -57.42,-2.8 -82.62,-9.8 -134.45,-37.82 -142.85,-189.07 -44.82,-257.69 79.83,-56.02 215.68,-53.23 319.31,-26.61l0 176.46zm1183.43 -631.63c0,-127.45 -144.25,-190.47 -292.71,-190.47 -148.45,0 -296.91,63.02 -296.91,190.47 0,47.62 0,102.24 0,152.65 0,72.83 51.82,138.66 141.46,154.07 -81.23,12.59 -159.66,61.62 -159.66,151.24 0,50.43 0,116.25 0,165.27 0,127.44 166.66,190.47 315.11,190.47 148.46,0 315.11,-63.03 315.11,-190.47l0 -287.11 100.84 0 0 -61.62 -415.95 0c-113.44,0 -225.47,-33.62 -225.47,-121.85 0,-50.41 0,-105.03 0,-152.65 0,-81.23 112.03,-121.85 225.47,-121.85 112.05,0 225.49,40.62 225.49,121.85l0 75.63 67.22 0 0 -75.63zm-47.62 336.12l0 287.11c0,79.82 -133.04,120.44 -245.09,120.44 -113.44,0 -245.09,-40.62 -245.09,-120.44 0,-49.02 0,-114.84 0,-165.27 0,-105.03 168.07,-121.84 245.09,-121.84l245.09 0zm628.83 -515.39c0,327.72 0,654.04 0,981.76l70.02 0 0 -981.76 -70.02 0zm756.29 981.76l0 -499.98c0,-137.25 -133.06,-198.87 -263.31,-197.48 -65.82,0 -138.65,16.81 -190.46,72.83l0 -64.42 -71.43 0 0 689.05 71.43 0 0 -490.17c0,-95.24 96.63,-138.66 191.87,-138.66 95.23,0 190.46,44.82 190.46,127.45l0 501.38 71.44 0zm495.77 -77.03c-49.02,16.81 -102.23,19.61 -154.05,11.21 -72.83,-12.61 -135.85,-53.22 -135.85,-116.25l0 -324.91c0,-56.02 47.62,-91.04 107.83,-107.84 26.61,-7 54.62,-11.2 84.04,-11.2 29.4,0 57.42,4.2 84.03,11.2 60.22,16.8 107.83,53.21 107.83,107.84l0 0 0 324.91c0,50.42 -40.61,86.83 -93.83,105.04zm163.85 -429.95l0 0c0,-92.43 -70.02,-151.26 -159.65,-175.07 -32.21,-9.8 -67.22,-14 -102.23,-14 -35.01,0 -68.63,4.2 -102.24,14 -89.63,23.81 -159.66,82.64 -159.66,175.07l0 324.91c0,105.04 89.63,165.26 194.67,183.47 63.03,9.81 127.44,7 187.67,-12.61 81.23,-28 141.44,-84.03 141.44,-170.86l0 -324.91zm407.55 513.99l189.07 -179.27c46.22,-44.82 54.61,-71.43 54.61,-119.05l0 -394.94 -70.02 0 0 394.94c0,29.41 -4.19,40.62 -25.2,60.23l-162.47 154.05 -162.46 -154.05c-21.01,-19.61 -23.8,-30.82 -23.8,-60.23l0 -394.94 -71.42 0 0 394.94c0,47.62 8.39,74.23 54.61,119.05l189.07 179.27 28.01 0zm791.29 -418.76c-138.65,-26.6 -277.3,-18.2 -364.14,40.62 -142.84,93.82 -120.43,323.51 70.04,375.33 33.6,8.41 68.62,14 102.23,14 68.63,0 144.25,-14 204.48,-72.81 21.01,43.4 67.22,60.21 126.04,56.01l0 -63.02c-35.01,0 -68.62,-14 -68.62,-65.82l0 -368.33c0,-37.82 -7.01,-72.83 -29.42,-105.04 -92.43,-127.46 -392.14,-120.45 -474.76,12.59l60.21 37.82c29.42,-43.42 78.43,-64.42 128.85,-72.83 39.22,-5.6 72.82,-6.99 110.64,0 50.42,9.81 93.84,30.81 117.64,64.43 12.61,16.8 16.81,36.42 16.81,57.42l0 89.63zm0 240.89c0,89.64 -119.04,117.64 -191.87,117.64 -29.41,0 -57.42,-2.8 -82.63,-9.8 -134.45,-37.82 -142.85,-189.07 -44.81,-257.69 79.82,-56.02 215.67,-53.23 319.31,-26.61l0 176.46zm422.95 253.49c36.41,1.4 124.64,-4.2 124.64,40.61 0,44.83 -95.24,49.03 -127.44,16.81l-37.82 29.41c53.23,70.03 228.29,46.21 232.48,-44.81 1.41,-36.42 -35,-81.23 -124.64,-78.43l16.81 -37.82c32.21,-1.39 63.02,-5.6 93.83,-12.6l0 -1.4c89.64,-23.81 159.66,-82.63 159.66,-175.06l-70.02 0c0,56.02 -47.62,92.43 -107.85,109.24l-1.39 0c-51.82,14 -114.84,14 -166.66,0 -53.23,-15.41 -107.84,-49.03 -107.84,-112.05l0 -319.31c0,-63.02 56.02,-96.63 107.84,-110.64 26.61,-7 54.61,-11.21 84.03,-11.21 28,0 57.41,4.21 82.63,11.21 61.62,16.8 109.24,53.22 109.24,109.24l70.02 0c0,-93.84 -70.02,-151.26 -159.66,-176.47 -33.61,-8.4 -68.62,-14 -102.23,-14 -35.02,0 -70.03,5.6 -102.25,14 -85.42,23.82 -159.65,81.24 -159.65,176.47l0 320.71c0,96.64 72.83,155.46 159.65,179.27 19.61,4.2 39.23,8.4 60.23,9.8l-33.61 70.02 0 7.01zm880.91 -494.38c-138.65,-26.6 -277.29,-18.2 -364.13,40.62 -142.85,93.82 -120.44,323.51 70.03,375.33 33.61,8.41 68.63,14 102.23,14 68.63,0 144.25,-14 204.48,-72.81 21.01,43.4 67.22,60.21 126.04,56.01l0 -63.02c-35.01,0 -68.62,-14 -68.62,-65.82l0 -368.33c0,-37.82 -7,-72.83 -29.42,-105.04 -92.43,-127.46 -392.13,-120.45 -474.76,12.59l60.22 37.82c29.41,-43.42 78.43,-64.42 128.84,-72.83 39.22,-5.6 72.83,-6.99 110.64,0 50.42,9.81 93.84,30.81 117.64,64.43 12.61,16.8 16.81,36.42 16.81,57.42l0 89.63zm0 240.89c0,89.64 -119.04,117.64 -191.87,117.64 -29.4,0 -57.42,-2.8 -82.63,-9.8 -134.44,-37.82 -142.84,-189.07 -44.81,-257.69 79.82,-56.02 215.67,-53.23 319.31,-26.61l0 176.46zm-271.7 -645.64c4.21,-21.01 23.81,-37.8 44.82,-39.21 32.22,-1.4 56.02,46.22 105.04,43.42 39.21,-2.81 67.23,-28.01 74.22,-65.83l-43.41 -18.2c-4.21,18.2 -14.01,29.41 -32.21,30.81 -26.61,2.8 -57.42,-47.62 -109.24,-42.02 -37.82,2.8 -75.62,39.21 -82.63,77.03l43.41 14zm866.91 739.47c-49.02,16.81 -102.23,19.61 -154.05,11.21 -72.83,-12.61 -135.85,-53.22 -135.85,-116.25l0 -324.91c0,-56.02 47.62,-91.04 107.84,-107.84 26.61,-7 54.61,-11.2 84.03,-11.2 29.41,0 57.42,4.2 84.03,11.2 60.22,16.8 107.84,53.21 107.84,107.84l0 0 0 324.91c0,50.42 -40.61,86.83 -93.84,105.04zm163.86 -429.95l0 0c0,-92.43 -70.02,-151.26 -159.66,-175.07 -32.21,-9.8 -67.22,-14 -102.23,-14 -35.01,0 -68.63,4.2 -102.23,14 -89.64,23.81 -159.67,82.64 -159.67,175.07l0 324.91c0,105.04 89.63,165.26 194.68,183.47 63.02,9.81 127.44,7 187.67,-12.61 81.22,-28 141.44,-84.03 141.44,-170.86l0 -324.91z"/>
   <circle class="fil11" cx="16795.91" cy="5518.82" r="222.79"/>
   <circle class="fil12" cx="14928.25" cy="5688.25" r="124.78"/>
   <path class="fil13" d="M4042.93 8757.65c-331.31,-427.85 -543.52,-812.82 -596.64,-1140.51l-703.4 1980.69 1040.13 0 259.91 -840.18z"/>
  </g>
 </g>
</svg>
