<?xml version="1.0" encoding="UTF-8"?>
<!DOCTYPE svg PUBLIC "-//W3C//DTD SVG 1.1//EN" "http://www.w3.org/Graphics/SVG/1.1/DTD/svg11.dtd">
<!-- Creator: CorelDRAW -->
<svg xmlns="http://www.w3.org/2000/svg" xml:space="preserve" width="205mm" height="123mm" version="1.1" style="shape-rendering:geometricPrecision; text-rendering:geometricPrecision; image-rendering:optimizeQuality; fill-rule:evenodd; clip-rule:evenodd"
viewBox="0 0 20500 12300"
 xmlns:xlink="http://www.w3.org/1999/xlink"
 xmlns:xodm="http://www.corel.com/coreldraw/odm/2003">
 <defs>
  <style type="text/css">
   <![CDATA[
    .fil2 {fill:none}
    .fil5 {fill:none;fill-rule:nonzero}
    .fil13 {fill:#EDDCB9}
    .fil9 {fill:#0D0D0D}
    .fil11 {fill:#0C003C;fill-rule:nonzero}
    .fil3 {fill:#0C003C;fill-rule:nonzero}
    .fil7 {fill:url(#id2)}
    .fil4 {fill:url(#id3)}
    .fil12 {fill:url(#id4)}
    .fil0 {fill:url(#id5)}
    .fil8 {fill:url(#id6)}
    .fil6 {fill:url(#id7);fill-rule:nonzero}
    .fil10 {fill:url(#id8);fill-rule:nonzero}
    .fil1 {fill:url(#id9);fill-rule:nonzero}
   ]]>
  </style>
    <clipPath id="id0">
     <path d="M8736.61 3793.18l287 -503.14c99.98,-173.36 809.54,-1346.83 849.98,-1472.3 223.68,72.09 848.96,526.4 988.54,658.98l-376.94 445.88c-131.55,147.05 -239.96,280.1 -371.52,427.16 -134.42,150.14 -246.61,287.26 -381.13,437.7l-371.04 427.61 -304.06 -222.54c-62.85,-41.98 -276.38,-157.06 -320.83,-199.35zm-2195.61 -2689.31c91.7,7.51 388.42,-24.79 581.84,-16.82l593.25 35.3 -100.36 1156.47c-12.96,145.2 -63.59,1029.81 -99.42,1140.92 -150.46,-44.76 -631.39,-44.18 -753.25,-22.59 -9.02,-51.05 -8.12,-92.36 -14.06,-144.28 -30.27,-270.31 -217.29,-2040.19 -208,-2149zm-2103.51 -677.95c93.68,-26.65 181.44,-66.68 281.3,-100.96l563.26 -171.27c102.27,-27.27 180.99,-46.01 285.02,-64.33 -3.66,73.04 352.86,1639.78 364.84,1690.23l139.03 640.14c14.75,74.64 32.31,128.12 46.98,203.03 57.68,290.32 131.11,558.71 181.83,845.54 -187.73,33.27 -373.77,98.8 -551.06,165.25 -57.94,21.7 -112.43,50.1 -163.41,64.72l-1147.79 -3272.35zm5215.86 4063.01c142.6,146.27 225.95,253.88 340.84,415.76 35.66,50.3 69,121.29 116.87,151.95 50.62,-14.44 126.78,-72.48 173.67,-104.28l2523.66 -1662.36c35.36,-23.09 57.76,-37.59 90.83,-59.25 54.7,-35.79 47.44,-12.34 84.82,-70.47 -64.95,-195.49 -551.95,-736.89 -702.18,-926.93l-1316.42 1123.52c-159.22,141.24 -1257.18,1040.76 -1312.09,1132.06zm-1140.49 -4410.68c-44.97,139.53 -79.03,277.93 -102.32,415.76 -51.61,301.7 -212.35,933.42 -282.22,1264.94 -30.46,144.53 -65.26,282.38 -92.3,410.61 -30.96,147.15 -64.82,296.48 -96.23,427.66l-194.41 856.62c70.76,16.57 78.11,5.28 168.61,33.83 88.8,28 125.9,36.24 191.25,47.37 106.27,18.07 241.25,92.65 371.23,134.54 97.12,-301.3 192.58,-532.04 286.84,-828.34l304.56 -823.58c51.31,-123.52 90.83,-286.55 134.67,-416.83l153.04 -410.28c52.5,-162.91 107.9,-269.27 152.85,-410.68 23.23,-72.97 45.84,-146.07 70.73,-218.5 38.5,-112.73 71.01,-144.2 -9.76,-182.65l-500.48 -161.32c-206.77,-66.63 -370.57,-96.14 -556.06,-139.15zm-5295.45 2456.57c52.59,-126.52 805.82,-633.76 939.04,-678.08 76.86,49.63 108.62,178.49 158.98,251.56l485.33 871.3c95.9,178.44 88.63,190.37 206.99,378.21l265.22 500.07c-41.75,33.13 -105.08,66.76 -159.41,102.36 -53.13,34.74 -97.62,62.01 -147.67,95.88 -58.3,39.27 -238.27,177.54 -273.02,235.28 -83.27,-34.59 -498.57,-576.81 -567,-663.17 -57.65,-72.62 -116.07,-137.09 -175.89,-212.58l-548.13 -672.63c-47.64,-55.41 -137.66,-177.92 -184.44,-208.2zm-2167.5 762.57c112.28,46.76 251.45,156.5 359.72,224.31l1093.3 696.16c91.47,61.17 1393.49,896.02 1475.1,924.19 7.76,-22.4 19.24,-46.89 33.47,-72.78l4.53 -12.74 1.05 -2.7c55.57,-142.9 139.38,-253.38 247.01,-329.18 75.79,-92.24 139.9,-168.77 153.47,-201.49l-668.09 -535.5c-108.96,-90.72 -219.36,-176.93 -330.5,-269.58 -159.57,-133.11 -1619.47,-1331.88 -1704.13,-1366.93 -26.92,65.23 -592.57,738.21 -664.93,946.24zm287.25 2214.3l-29.19 90.61c171.62,55.3 393.35,121.8 560.94,149.09 234.18,38.53 888.51,235.12 1109.58,274.71l570.37 138.18c34.45,-147.27 61.29,-296.07 128.64,-457.91 118.97,-285.25 179.39,-233.78 -125.49,-361.24 -386.91,-161.96 -1586.77,-752.1 -1851.21,-837.33 -128.72,214.4 -277.84,737.75 -363.64,1003.89zm-1287.83 765.96l3423.88 307.4 -266.53 750.49c-463.98,8.15 -1371.92,52.85 -1466.78,55.3l-1518 51.12c-74.68,0.46 -147.98,10.08 -209.34,4.87 18.47,-218.24 -51.73,-894.6 36.77,-1169.18zm1223.47 1743.39l1784.95 -266.11 -361.02 1016.59c-494.1,171.78 -994.39,345 -1106.67,364.81 -86.05,-108.81 -332.24,-958.96 -317.26,-1115.29zm-295.42 2519.02c38.64,135.44 539.87,821.52 672.18,957.31 222.5,-175.79 435.07,-371.87 657.56,-548.61l327.98 -275.64c305.79,-267.98 642.14,-538.7 965.79,-806.15l-1293.19 0 91 -256.24 -1421.32 929.33zm2878.71 -886.09c92.86,-78.5 183.61,-156.58 271.11,-234.07 59.58,-52.85 124.18,-88.56 163.27,-153.9 -91.54,-94.04 -159.5,-198.58 -221.98,-298.63l-212.4 686.6z"/>
    </clipPath>
    <clipPath id="id1" style="clip-rule:nonzero">
     <path d="M20099.6 9671.97l-1133.85 0 -666.04 -1189.44 -693.84 1189.44 -1147.15 0 1232.97 -1938.9 -1161.66 -1826.48 1090.35 0 651.53 1132.64c360.07,-606.35 915.93,-1384.67 1219.67,-1980.01l1003.9 63.46 -1643.34 2623.69 1247.46 1925.6zm-3966.77 -3764.63c107.46,11.98 201.81,58.06 283.04,138.25 94.28,94.3 141.42,207.92 141.42,339.68l0 3286.7 -993.63 0 0 -2579.75c253.7,-421.49 456.18,-833.33 569.17,-1184.88zm-6444.98 1494.52l0 638.25c9.66,294.94 79.77,513.73 212.74,656.37 122.09,152.3 307.03,228.46 552.41,228.46 160.78,0 297.38,-33.84 410.99,-100.33 27.81,-8.46 54.4,-25.38 77.37,-49.56 24.17,-22.97 49.56,-49.56 78.57,-78.57 8.46,-27.8 44.73,-66.49 105.16,-113.63 61.65,-47.15 149.89,-71.32 262.31,-71.32l708.35 0c-103.96,396.48 -302.2,698.69 -594.72,906.59 -292.53,217.59 -661.21,326.38 -1104.84,326.38 -537.91,0 -959.78,-175.27 -1261.98,-524.62 -303.4,-339.66 -454.5,-825.6 -454.5,-1459 0,-604.4 146.26,-1075.84 440.01,-1415.49 303.4,-349.35 724.05,-524.62 1261.97,-524.62 566.92,0 1005.71,169.22 1317.58,508.9 302.2,348.12 453.3,834.07 453.3,1456.58 0,37.48 0,70.12 0,97.92 0,29.01 0,47.14 0,56.82 0,47.13 -4.84,79.77 -14.51,99.12l-2240.13 0 0 -638.25 1234.42 0c-18.14,-253.84 -84.61,-442.41 -198.24,-564.5 -122.09,-131.76 -297.36,-197.03 -523.41,-197.03 -207.91,0 -378.35,65.27 -510.11,197.03 -118.68,117.6 -187.29,280.5 -207.53,487.77 -2.55,25.45 -4.2,51.16 -5.21,76.73zm-2426.6 2270.11l0 -3882.63c0,-339.68 89.45,-594.73 269.55,-765.17 170.45,-160.77 448.47,-240.55 836.49,-240.55 94.28,0 170.45,4.84 227.25,14.51 103.96,0 183.74,4.83 240.56,14.51l0 776.04 -255.07 0c-131.75,0 -227.25,19.34 -282.85,56.8 -47.15,38.69 -71.32,114.84 -71.32,229.68l0 257.48 609.24 0 0 212.75c0,142.63 -47.15,258.67 -141.44,348.12 -94.28,90.66 -203.07,135.39 -326.37,135.39l-141.43 0 0 2843.07 -964.61 0zm-2354.08 -3895.93l-680.54 2068.24 1359.89 0 -679.35 -2068.24zm-227.25 -977.91l794.19 0 1769.65 4873.84 -1061.31 0 -326.37 -1008.13 -1897.8 0 -311.87 1008.13 -1062.53 0 1614.94 -4547.46c84.62,-217.59 245.39,-326.38 481.1,-326.38z"/>
    </clipPath>
  <linearGradient id="id2" gradientUnits="userSpaceOnUse" x1="5955.71" y1="7660.65" x2="6138.63" y2="7660.65">
   <stop offset="0" style="stop-opacity:1; stop-color:#FFCB05"/>
   <stop offset="1" style="stop-opacity:1; stop-color:#F78E1E"/>
  </linearGradient>
  <linearGradient id="id3" gradientUnits="userSpaceOnUse" xlink:href="#id2" x1="5168.59" y1="6259.03" x2="6255.21" y2="6259.03">
  </linearGradient>
  <linearGradient id="id4" gradientUnits="userSpaceOnUse" xlink:href="#id2" x1="16711.71" y1="5542.77" x2="17151.19" y2="5542.77">
  </linearGradient>
  <linearGradient id="id5" gradientUnits="userSpaceOnUse" x1="958.83" y1="5564.26" x2="13961.49" y2="2172.27">
   <stop offset="0" style="stop-opacity:1; stop-color:#F78E1E"/>
   <stop offset="1" style="stop-opacity:1; stop-color:#FFCB05"/>
  </linearGradient>
  <linearGradient id="id6" gradientUnits="userSpaceOnUse" xlink:href="#id2" x1="10225.35" y1="7261.16" x2="15011.64" y2="8759.89">
  </linearGradient>
  <linearGradient id="id7" gradientUnits="objectBoundingBox" x1="0%" y1="50%" x2="100%" y2="50%">
   <stop offset="0" style="stop-opacity:1; stop-color:#B12923"/>
   <stop offset="1" style="stop-opacity:1; stop-color:#7A0000"/>
  </linearGradient>
  <linearGradient id="id8" gradientUnits="userSpaceOnUse" xlink:href="#id7" x1="15548.26" y1="5339.52" x2="16293.88" y2="5339.52">
  </linearGradient>
  <linearGradient id="id9" gradientUnits="userSpaceOnUse" x1="4629.53" y1="9412.74" x2="6144.81" y2="4827.25">
   <stop offset="0" style="stop-opacity:1; stop-color:#7A0000"/>
   <stop offset="1" style="stop-opacity:1; stop-color:#B12923"/>
  </linearGradient>
 </defs>
 <g id="Camada_x0020_1">
  <metadata id="CorelCorpID_0Corel-Layer"/>
  <g id="_2284372791936">
   <path class="fil0" d="M8736.61 3793.18l287 -503.14c99.98,-173.36 809.54,-1346.83 849.98,-1472.3 223.68,72.09 848.96,526.4 988.54,658.98l-376.94 445.88c-131.55,147.05 -239.96,280.1 -371.52,427.16 -134.42,150.14 -246.61,287.26 -381.13,437.7l-371.04 427.61 -304.06 -222.54c-62.85,-41.98 -276.38,-157.06 -320.83,-199.35zm-2195.61 -2689.31c91.7,7.51 388.42,-24.79 581.84,-16.82l593.25 35.3 -100.36 1156.47c-12.96,145.2 -63.59,1029.81 -99.42,1140.92 -150.46,-44.76 -631.39,-44.18 -753.25,-22.59 -9.02,-51.05 -8.12,-92.36 -14.06,-144.28 -30.27,-270.31 -217.29,-2040.19 -208,-2149zm-2103.51 -677.95c93.68,-26.65 181.44,-66.68 281.3,-100.96l563.26 -171.27c102.27,-27.27 180.99,-46.01 285.02,-64.33 -3.66,73.04 352.86,1639.78 364.84,1690.23l139.03 640.14c14.75,74.64 32.31,128.12 46.98,203.03 57.68,290.32 131.11,558.71 181.83,845.54 -187.73,33.27 -373.77,98.8 -551.06,165.25 -57.94,21.7 -112.43,50.1 -163.41,64.72l-1147.79 -3272.35zm5215.86 4063.01c142.6,146.27 225.95,253.88 340.84,415.76 35.66,50.3 69,121.29 116.87,151.95 50.62,-14.44 126.78,-72.48 173.67,-104.28l2523.66 -1662.36c35.36,-23.09 57.76,-37.59 90.83,-59.25 54.7,-35.79 47.44,-12.34 84.82,-70.47 -64.95,-195.49 -551.95,-736.89 -702.18,-926.93l-1316.42 1123.52c-159.22,141.24 -1257.18,1040.76 -1312.09,1132.06zm-1140.49 -4410.68c-44.97,139.53 -79.03,277.93 -102.32,415.76 -51.61,301.7 -212.35,933.42 -282.22,1264.94 -30.46,144.53 -65.26,282.38 -92.3,410.61 -30.96,147.15 -64.82,296.48 -96.23,427.66l-194.41 856.62c70.76,16.57 78.11,5.28 168.61,33.83 88.8,28 125.9,36.24 191.25,47.37 106.27,18.07 241.25,92.65 371.23,134.54 97.12,-301.3 192.58,-532.04 286.84,-828.34l304.56 -823.58c51.31,-123.52 90.83,-286.55 134.67,-416.83l153.04 -410.28c52.5,-162.91 107.9,-269.27 152.85,-410.68 23.23,-72.97 45.84,-146.07 70.73,-218.5 38.5,-112.73 71.01,-144.2 -9.76,-182.65l-500.48 -161.32c-206.77,-66.63 -370.57,-96.14 -556.06,-139.15zm-5295.45 2456.57c52.59,-126.52 805.82,-633.76 939.04,-678.08 76.86,49.63 108.62,178.49 158.98,251.56l485.33 871.3c95.9,178.44 88.63,190.37 206.99,378.21l265.22 500.07c-41.75,33.13 -105.08,66.76 -159.41,102.36 -53.13,34.74 -97.62,62.01 -147.67,95.88 -58.3,39.27 -238.27,177.54 -273.02,235.28 -83.27,-34.59 -498.57,-576.81 -567,-663.17 -57.65,-72.62 -116.07,-137.09 -175.89,-212.58l-548.13 -672.63c-47.64,-55.41 -137.66,-177.92 -184.44,-208.2zm-2167.5 762.57c112.28,46.76 251.45,156.5 359.72,224.31l1093.3 696.16c91.47,61.17 1393.49,896.02 1475.1,924.19 7.76,-22.4 19.24,-46.89 33.47,-72.78l4.53 -12.74 1.05 -2.7c55.57,-142.9 139.38,-253.38 247.01,-329.18 75.79,-92.24 139.9,-168.77 153.47,-201.49l-668.09 -535.5c-108.96,-90.72 -219.36,-176.93 -330.5,-269.58 -159.57,-133.11 -1619.47,-1331.88 -1704.13,-1366.93 -26.92,65.23 -592.57,738.21 -664.93,946.24zm287.25 2214.3l-29.19 90.61c171.62,55.3 393.35,121.8 560.94,149.09 234.18,38.53 888.51,235.12 1109.58,274.71l570.37 138.18c34.45,-147.27 61.29,-296.07 128.64,-457.91 118.97,-285.25 179.39,-233.78 -125.49,-361.24 -386.91,-161.96 -1586.77,-752.1 -1851.21,-837.33 -128.72,214.4 -277.84,737.75 -363.64,1003.89zm-1287.83 765.96l3423.88 307.4 -266.53 750.49c-463.98,8.15 -1371.92,52.85 -1466.78,55.3l-1518 51.12c-74.68,0.46 -147.98,10.08 -209.34,4.87 18.47,-218.24 -51.73,-894.6 36.77,-1169.18zm1223.47 1743.39l1784.95 -266.11 -361.02 1016.59c-494.1,171.78 -994.39,345 -1106.67,364.81 -86.05,-108.81 -332.24,-958.96 -317.26,-1115.29zm-295.42 2519.02c38.64,135.44 539.87,821.52 672.18,957.31 222.5,-175.79 435.07,-371.87 657.56,-548.61l327.98 -275.64c305.79,-267.98 642.14,-538.7 965.79,-806.15l-1293.19 0 91 -256.24 -1421.32 929.33zm2878.71 -886.09c92.86,-78.5 183.61,-156.58 271.11,-234.07 59.58,-52.85 124.18,-88.56 163.27,-153.9 -91.54,-94.04 -159.5,-198.58 -221.98,-298.63l-212.4 686.6z"/>
   <g style="clip-path:url(#id0)">
    <g>
     <ellipse class="fil1" cx="6546.81" cy="7276.6" rx="4161.13" ry="4476.37"/>
    </g>
   </g>
   <path class="fil2" d="M8736.61 3793.18l287 -503.14c99.98,-173.36 809.54,-1346.83 849.98,-1472.3 223.68,72.09 848.96,526.4 988.54,658.98l-376.94 445.88c-131.55,147.05 -239.96,280.1 -371.52,427.16 -134.42,150.14 -246.61,287.26 -381.13,437.7l-371.04 427.61 -304.06 -222.54c-62.85,-41.98 -276.38,-157.06 -320.83,-199.35zm-2195.61 -2689.31c91.7,7.51 388.42,-24.79 581.84,-16.82l593.25 35.3 -100.36 1156.47c-12.96,145.2 -63.59,1029.81 -99.42,1140.92 -150.46,-44.76 -631.39,-44.18 -753.25,-22.59 -9.02,-51.05 -8.12,-92.36 -14.06,-144.28 -30.27,-270.31 -217.29,-2040.19 -208,-2149zm-2103.51 -677.95c93.68,-26.65 181.44,-66.68 281.3,-100.96l563.26 -171.27c102.27,-27.27 180.99,-46.01 285.02,-64.33 -3.66,73.04 352.86,1639.78 364.84,1690.23l139.03 640.14c14.75,74.64 32.31,128.12 46.98,203.03 57.68,290.32 131.11,558.71 181.83,845.54 -187.73,33.27 -373.77,98.8 -551.06,165.25 -57.94,21.7 -112.43,50.1 -163.41,64.72l-1147.79 -3272.35zm5215.86 4063.01c142.6,146.27 225.95,253.88 340.84,415.76 35.66,50.3 69,121.29 116.87,151.95 50.62,-14.44 126.78,-72.48 173.67,-104.28l2523.66 -1662.36c35.36,-23.09 57.76,-37.59 90.83,-59.25 54.7,-35.79 47.44,-12.34 84.82,-70.47 -64.95,-195.49 -551.95,-736.89 -702.18,-926.93l-1316.42 1123.52c-159.22,141.24 -1257.18,1040.76 -1312.09,1132.06zm-1140.49 -4410.68c-44.97,139.53 -79.03,277.93 -102.32,415.76 -51.61,301.7 -212.35,933.42 -282.22,1264.94 -30.46,144.53 -65.26,282.38 -92.3,410.61 -30.96,147.15 -64.82,296.48 -96.23,427.66l-194.41 856.62c70.76,16.57 78.11,5.28 168.61,33.83 88.8,28 125.9,36.24 191.25,47.37 106.27,18.07 241.25,92.65 371.23,134.54 97.12,-301.3 192.58,-532.04 286.84,-828.34l304.56 -823.58c51.31,-123.52 90.83,-286.55 134.67,-416.83l153.04 -410.28c52.5,-162.91 107.9,-269.27 152.85,-410.68 23.23,-72.97 45.84,-146.07 70.73,-218.5 38.5,-112.73 71.01,-144.2 -9.76,-182.65l-500.48 -161.32c-206.77,-66.63 -370.57,-96.14 -556.06,-139.15zm-5295.45 2456.57c52.59,-126.52 805.82,-633.76 939.04,-678.08 76.86,49.63 108.62,178.49 158.98,251.56l485.33 871.3c95.9,178.44 88.63,190.37 206.99,378.21l265.22 500.07c-41.75,33.13 -105.08,66.76 -159.41,102.36 -53.13,34.74 -97.62,62.01 -147.67,95.88 -58.3,39.27 -238.27,177.54 -273.02,235.28 -83.27,-34.59 -498.57,-576.81 -567,-663.17 -57.65,-72.62 -116.07,-137.09 -175.89,-212.58l-548.13 -672.63c-47.64,-55.41 -137.66,-177.92 -184.44,-208.2zm-2167.5 762.57c112.28,46.76 251.45,156.5 359.72,224.31l1093.3 696.16c91.47,61.17 1393.49,896.02 1475.1,924.19 7.76,-22.4 19.24,-46.89 33.47,-72.78l4.53 -12.74 1.05 -2.7c55.57,-142.9 139.38,-253.38 247.01,-329.18 75.79,-92.24 139.9,-168.77 153.47,-201.49l-668.09 -535.5c-108.96,-90.72 -219.36,-176.93 -330.5,-269.58 -159.57,-133.11 -1619.47,-1331.88 -1704.13,-1366.93 -26.92,65.23 -592.57,738.21 -664.93,946.24zm287.25 2214.3l-29.19 90.61c171.62,55.3 393.35,121.8 560.94,149.09 234.18,38.53 888.51,235.12 1109.58,274.71l570.37 138.18c34.45,-147.27 61.29,-296.07 128.64,-457.91 118.97,-285.25 179.39,-233.78 -125.49,-361.24 -386.91,-161.96 -1586.77,-752.1 -1851.21,-837.33 -128.72,214.4 -277.84,737.75 -363.64,1003.89zm-1287.83 765.96l3423.88 307.4 -266.53 750.49c-463.98,8.15 -1371.92,52.85 -1466.78,55.3l-1518 51.12c-74.68,0.46 -147.98,10.08 -209.34,4.87 18.47,-218.24 -51.73,-894.6 36.77,-1169.18zm1223.47 1743.39l1784.95 -266.11 -361.02 1016.59c-494.1,171.78 -994.39,345 -1106.67,364.81 -86.05,-108.81 -332.24,-958.96 -317.26,-1115.29zm-295.42 2519.02c38.64,135.44 539.87,821.52 672.18,957.31 222.5,-175.79 435.07,-371.87 657.56,-548.61l327.98 -275.64c305.79,-267.98 642.14,-538.7 965.79,-806.15l-1293.19 0 91 -256.24 -1421.32 929.33zm2878.71 -886.09c92.86,-78.5 183.61,-156.58 271.11,-234.07 59.58,-52.85 124.18,-88.56 163.27,-153.9 -91.54,-94.04 -159.5,-198.58 -221.98,-298.63l-212.4 686.6z"/>
   <path class="fil3" d="M20099.6 9671.97l-1133.85 0 -666.04 -1189.44 -693.84 1189.44 -1147.15 0 1232.97 -1938.9 -1161.66 -1826.48 1090.35 0 651.53 1132.64c360.07,-606.35 915.93,-1384.67 1219.67,-1980.01l1003.9 63.46 -1643.34 2623.69 1247.46 1925.6zm-3966.77 -3764.63c107.46,11.98 201.81,58.06 283.04,138.25 94.28,94.3 141.42,207.92 141.42,339.68l0 3286.7 -993.63 0 0 -2579.75c253.7,-421.49 456.18,-833.33 569.17,-1184.88zm-6444.98 1494.52l0 638.25c9.66,294.94 79.77,513.73 212.74,656.37 122.09,152.3 307.03,228.46 552.41,228.46 160.78,0 297.38,-33.84 410.99,-100.33 27.81,-8.46 54.4,-25.38 77.37,-49.56 24.17,-22.97 49.56,-49.56 78.57,-78.57 8.46,-27.8 44.73,-66.49 105.16,-113.63 61.65,-47.15 149.89,-71.32 262.31,-71.32l708.35 0c-103.96,396.48 -302.2,698.69 -594.72,906.59 -292.53,217.59 -661.21,326.38 -1104.84,326.38 -537.91,0 -959.78,-175.27 -1261.98,-524.62 -303.4,-339.66 -454.5,-825.6 -454.5,-1459 0,-604.4 146.26,-1075.84 440.01,-1415.49 303.4,-349.35 724.05,-524.62 1261.97,-524.62 566.92,0 1005.71,169.22 1317.58,508.9 302.2,348.12 453.3,834.07 453.3,1456.58 0,37.48 0,70.12 0,97.92 0,29.01 0,47.14 0,56.82 0,47.13 -4.84,79.77 -14.51,99.12l-2240.13 0 0 -638.25 1234.42 0c-18.14,-253.84 -84.61,-442.41 -198.24,-564.5 -122.09,-131.76 -297.36,-197.03 -523.41,-197.03 -207.91,0 -378.35,65.27 -510.11,197.03 -118.68,117.6 -187.29,280.5 -207.53,487.77 -2.55,25.45 -4.2,51.16 -5.21,76.73zm-2426.6 2270.11l0 -3882.63c0,-339.68 89.45,-594.73 269.55,-765.17 170.45,-160.77 448.47,-240.55 836.49,-240.55 94.28,0 170.45,4.84 227.25,14.51 103.96,0 183.74,4.83 240.56,14.51l0 776.04 -255.07 0c-131.75,0 -227.25,19.34 -282.85,56.8 -47.15,38.69 -71.32,114.84 -71.32,229.68l0 257.48 609.24 0 0 212.75c0,142.63 -47.15,258.67 -141.44,348.12 -94.28,90.66 -203.07,135.39 -326.37,135.39l-141.43 0 0 2843.07 -964.61 0zm-2354.08 -3895.93l-680.54 2068.24 1359.89 0 -679.35 -2068.24zm-227.25 -977.91l794.19 0 1769.65 4873.84 -1061.31 0 -326.37 -1008.13 -1897.8 0 -311.87 1008.13 -1062.53 0 1614.94 -4547.46c84.62,-217.59 245.39,-326.38 481.1,-326.38z"/>
   <g style="clip-path:url(#id1)">
    <g>
     <path id="_1" class="fil4" d="M6050.49 7446.22c-7.22,-9.71 -15.05,-20.38 -23.83,-31.99 -70.25,-94.69 -128.58,-172.47 -191.93,-273.13 -108.81,-173.73 -224.84,-439.34 -287.56,-662.31 -68.04,-241.14 -126.06,-550.34 -133.27,-796.5 -6.59,-223.6 18.82,-739.45 81.53,-869.9 -40.77,-19.76 -192.23,-76.52 -242.4,-80.9 -1.89,84.35 -28.55,171.21 -43.6,259.66 -53.62,315.16 -49.54,596.13 -11.6,907.2 64.91,530.29 234.88,1000.99 488.27,1432.17l176.55 266.24c-5.34,18.5 -8.16,38.26 -8.16,58.64 0,115.72 90.01,209.17 201.32,209.17 111.01,0 201.33,-93.76 201.33,-209.17 0,-115.71 -90.01,-209.16 -201.33,-209.16 -1.87,-0.02 -3.75,-0.02 -5.32,-0.02l0 0z"/>
    </g>
   </g>
   <path class="fil5" d="M20099.6 9671.97l-1133.85 0 -666.04 -1189.44 -693.84 1189.44 -1147.15 0 1232.97 -1938.9 -1161.66 -1826.48 1090.35 0 651.53 1132.64c360.07,-606.35 915.93,-1384.67 1219.67,-1980.01l1003.9 63.46 -1643.34 2623.69 1247.46 1925.6zm-3966.77 -3764.63c107.46,11.98 201.81,58.06 283.04,138.25 94.28,94.3 141.42,207.92 141.42,339.68l0 3286.7 -993.63 0 0 -2579.75c253.7,-421.49 456.18,-833.33 569.17,-1184.88zm-6444.98 1494.52l0 638.25c9.66,294.94 79.77,513.73 212.74,656.37 122.09,152.3 307.03,228.46 552.41,228.46 160.78,0 297.38,-33.84 410.99,-100.33 27.81,-8.46 54.4,-25.38 77.37,-49.56 24.17,-22.97 49.56,-49.56 78.57,-78.57 8.46,-27.8 44.73,-66.49 105.16,-113.63 61.65,-47.15 149.89,-71.32 262.31,-71.32l708.35 0c-103.96,396.48 -302.2,698.69 -594.72,906.59 -292.53,217.59 -661.21,326.38 -1104.84,326.38 -537.91,0 -959.78,-175.27 -1261.98,-524.62 -303.4,-339.66 -454.5,-825.6 -454.5,-1459 0,-604.4 146.26,-1075.84 440.01,-1415.49 303.4,-349.35 724.05,-524.62 1261.97,-524.62 566.92,0 1005.71,169.22 1317.58,508.9 302.2,348.12 453.3,834.07 453.3,1456.58 0,37.48 0,70.12 0,97.92 0,29.01 0,47.14 0,56.82 0,47.13 -4.84,79.77 -14.51,99.12l-2240.13 0 0 -638.25 1234.42 0c-18.14,-253.84 -84.61,-442.41 -198.24,-564.5 -122.09,-131.76 -297.36,-197.03 -523.41,-197.03 -207.91,0 -378.35,65.27 -510.11,197.03 -118.68,117.6 -187.29,280.5 -207.53,487.77 -2.55,25.45 -4.2,51.16 -5.21,76.73zm-2426.6 2270.11l0 -3882.63c0,-339.68 89.45,-594.73 269.55,-765.17 170.45,-160.77 448.47,-240.55 836.49,-240.55 94.28,0 170.45,4.84 227.25,14.51 103.96,0 183.74,4.83 240.56,14.51l0 776.04 -255.07 0c-131.75,0 -227.25,19.34 -282.85,56.8 -47.15,38.69 -71.32,114.84 -71.32,229.68l0 257.48 609.24 0 0 212.75c0,142.63 -47.15,258.67 -141.44,348.12 -94.28,90.66 -203.07,135.39 -326.37,135.39l-141.43 0 0 2843.07 -964.61 0zm-2354.08 -3895.93l-680.54 2068.24 1359.89 0 -679.35 -2068.24zm-227.25 -977.91l794.19 0 1769.65 4873.84 -1061.31 0 -326.37 -1008.13 -1897.8 0 -311.87 1008.13 -1062.53 0 1614.94 -4547.46c84.62,-217.59 245.39,-326.38 481.1,-326.38z"/>
   <path class="fil6" d="M15456.74 9671.97l-496.81 0c-141.43,0 -257.48,-44.73 -346.93,-134.18 -90.65,-90.66 -135.38,-205.49 -135.38,-348.12l0 -606.27c346,-397.35 686.4,-854.83 973.98,-1309.59 3.41,61.07 5.14,124.28 5.14,189.71l0 2208.45zm-979.12 -2279.58l0 -129.53c0,-226.05 -67.69,-391.66 -204.29,-495.62 -136.58,-103.95 -290.11,-155.93 -459.33,-155.93 -169.23,0 -319.13,51.98 -450.89,155.93 -131.75,103.96 -198.24,269.57 -198.24,495.62l0 1652.53c-115.57,92.58 -236.06,181.02 -351.22,262.53 -114.81,81.25 -232.52,160.09 -353.33,232.17 -86.46,51.58 -184.74,107.4 -279.29,142.38l-9.78 3.67 0 -2092.62c0,-641.88 168.02,-1072.21 502.85,-1288.58 334.84,-217.59 705.94,-334.83 1112.09,-354.17 414.62,0 797.8,108.79 1147.15,325.17 70.91,44.16 134.6,97.43 191.07,159.84 -181.37,355.77 -406.19,730.94 -646.79,1086.61z"/>
   <path class="fil7" d="M6047.38 7567.69c50.8,0 91.57,42.65 91.57,95.33 0,52.68 -41.08,95.33 -91.57,95.33 -50.49,0 -91.57,-42.65 -91.57,-95.33 0,-52.68 40.77,-95.33 91.57,-95.33l0 0z"/>
   <path class="fil8" d="M9426.02 9823.66c3.05,3.91 10.5,4.27 10.81,10.62 1.14,18.42 1102.15,803.84 2806.3,163.69 450.58,-169.12 785.17,-366.66 1165.39,-639.63 907.34,-651.77 2238.39,-2440.01 2572.58,-3561.62 88.12,-296.08 163.04,-44.24 274.55,-400.36 74.13,-236.72 -229.88,-513.63 -502.67,-374.94 -65.24,33.13 -130.16,95.62 -159.4,188.99 -85.36,272.63 56.17,293.94 38.36,350.81 -316.53,1010.88 -1351.29,2560.25 -2096.63,3268.33 -270.23,256.48 -949.59,762.74 -1292.62,889.62 -106.3,39.33 -240.61,114.59 -476.61,198.75 -176.18,63.13 -516.35,151.47 -703.02,167.28 -390.48,32.83 -814.59,32.46 -1205.79,-82.47 -130.54,-38.58 -302.27,-138.68 -431.25,-179.07z"/>
   <path class="fil9" d="M8203.98 10565.89c4.39,23.2 44.53,44.22 27.29,4.07 -7.21,-16.93 -37,-56.45 -27.29,-4.07z"/>
   <circle class="fil10" cx="15921.07" cy="5339.52" r="372.81"/>
   <path class="fil11" d="M5073.94 10977.58l271.83 0 -2.87 939.95 72.97 0 2.86 -939.95 271.83 0 0 -62.95 -616.62 0 0 62.95zm652.38 422.05c0,-55.8 48.65,-93 110.16,-110.16 54.37,-14.31 115.89,-14.31 170.25,0 127.33,35.76 150.22,207.44 28.61,264.67 -95.86,45.78 -247.5,30.04 -309.02,32.9l0 -187.41zm0 250.36c95.86,0 243.22,20.04 343.36,-34.33 173.11,-91.57 141.63,-339.07 -44.35,-394.87 -67.24,-18.6 -140.2,-18.6 -207.45,0 -92.99,25.76 -164.53,84.42 -164.53,178.84l0 317.61c0,40.05 8.59,75.81 31.49,108.72 37.19,50.08 103,82.99 175.96,94.42 42.92,7.16 81.55,5.73 124.47,-1.42 72.96,-11.45 143.07,-40.06 184.56,-107.3l-61.52 -37.2 0 0 0 0c-31.47,44.36 -80.12,65.82 -133.05,72.96 -38.63,7.16 -74.4,7.16 -113.03,0 -50.06,-8.58 -94.42,-31.47 -118.75,-64.38 -12.87,-18.59 -17.16,-37.2 -17.16,-60.08l0 -72.97zm1051.55 82.98c0,57.23 -48.65,94.43 -110.17,111.6l-1.42 0c-52.94,14.3 -117.32,14.3 -170.25,0 -54.37,-15.74 -110.16,-50.08 -110.16,-114.46l0 -326.19c0,-64.38 57.22,-98.71 110.16,-113.03l0 0c27.18,-7.14 55.79,-11.44 85.84,-11.44 28.6,0 58.64,4.3 84.41,11.44 62.94,17.17 111.59,54.37 111.59,111.6l71.53 0c0,-95.86 -71.53,-154.52 -163.1,-180.27 -34.34,-8.58 -70.1,-14.3 -104.43,-14.3 -35.78,0 -71.54,5.72 -104.45,14.3l0 0c-87.26,24.33 -163.09,82.99 -163.09,180.27l0 327.62c0,98.72 74.39,158.8 163.09,183.13 67.25,17.17 141.65,17.17 208.88,0l0 -1.44c91.57,-24.31 163.1,-84.4 163.1,-178.83l-71.53 0zm741.08 184.56l0 -510.75c0,-140.2 -135.92,-203.15 -268.97,-201.73 -67.24,0 -141.63,17.17 -194.57,74.4l0 -65.81 -72.96 0 0 703.89 72.96 0 0 -500.73c0,-97.29 98.71,-141.64 196,-141.64 97.29,0 194.57,45.78 194.57,130.19l0 512.18 72.97 0zm506.45 -78.69c-50.07,17.17 -104.43,20.03 -157.37,11.45 -74.39,-12.88 -138.77,-54.37 -138.77,-118.75l0 -331.91c0,-57.22 48.64,-93 110.16,-110.16 27.18,-7.16 55.79,-11.45 85.84,-11.45 30.04,0 58.66,4.29 85.84,11.45 61.52,17.16 110.16,54.36 110.16,110.16l0 0 0 331.91c0,51.5 -41.49,88.7 -95.86,107.3zm167.39 -439.21l0 0c0,-94.42 -71.53,-154.51 -163.1,-178.84 -32.9,-10.02 -68.67,-14.31 -104.43,-14.31 -35.76,0 -70.11,4.29 -104.44,14.31 -91.56,24.33 -163.1,84.42 -163.1,178.84l0 331.91c0,107.3 91.56,168.82 198.87,187.42 64.38,10.02 130.18,7.15 191.71,-12.88 82.97,-28.61 144.49,-85.84 144.49,-174.54l0 -331.91zm317.61 459.24c-74.4,0 -104.44,-17.17 -104.44,-91.57l0 -852.67 -71.54 0 0 851.25c0,127.33 58.66,164.53 175.98,157.37l0 -64.38zm470.68 -20.03c-50.08,17.17 -104.43,20.03 -157.37,11.45 -74.39,-12.88 -138.77,-54.37 -138.77,-118.75l0 -331.91c0,-57.22 48.64,-93 110.15,-110.16 27.19,-7.16 55.8,-11.45 85.85,-11.45 30.04,0 58.66,4.29 85.84,11.45 61.51,17.16 110.16,54.36 110.16,110.16l0 0 0 331.91c0,51.5 -41.49,88.7 -95.86,107.3zm167.39 -439.21l0 0c0,-94.42 -71.53,-154.51 -163.1,-178.84 -32.91,-10.02 -68.67,-14.31 -104.43,-14.31 -35.77,0 -70.11,4.29 -104.44,14.31 -91.56,24.33 -163.1,84.42 -163.1,178.84l0 331.91c0,107.3 91.56,168.82 198.87,187.42 64.38,10.02 130.18,7.15 191.71,-12.88 82.97,-28.61 144.49,-85.84 144.49,-174.54l0 -331.91zm507.88 309.02c-22.89,7.15 -47.21,11.44 -72.96,14.31 -25.75,1.42 -51.5,1.42 -75.83,-2.87l0 0c-78.68,-11.44 -145.92,-50.06 -145.92,-117.31l0 -204.58c0,-55.79 47.21,-92.99 110.16,-110.16 25.75,-7.16 54.37,-10.02 84.41,-10.02 30.04,0 58.65,2.86 85.84,10.02 61.51,17.17 110.16,54.37 110.16,110.16l0 0 0 204.58c0,51.51 -41.49,87.27 -95.86,105.87zm81.55 -456.38c-22.89,-14.31 -48.64,-25.76 -77.26,-32.9 -32.9,-10.02 -68.67,-14.32 -104.43,-14.32 -34.35,0 -70.11,4.3 -104.44,14.32 -91.57,24.31 -163.11,84.4 -163.11,178.83l0 204.58c0,65.81 34.35,115.89 87.28,147.37 -5.72,2.85 -11.45,7.14 -15.74,11.43 -61.51,51.51 -37.19,150.22 68.68,167.4 113.02,18.59 316.17,-37.2 316.17,104.43l0 0 0 25.75c0,51.51 -27.19,71.54 -81.54,90.13 -50.08,17.17 -134.49,21.46 -200.29,1.44 -50.08,-15.74 -90.13,-40.06 -94.44,-90.13 -2.85,-20.03 -1.42,-44.36 4.31,-64.39l-71.54 0c-7.16,21.46 -7.16,45.79 -5.73,68.67 5.73,90.14 68.67,135.93 153.08,154.52 38.63,10.01 78.69,12.88 118.75,12.88 38.63,0 80.12,-2.87 115.89,-14.32 81.55,-22.88 134.48,-70.09 134.48,-158.8l0 -25.75 0 0c0,-216.03 -233.2,-148.79 -370.54,-171.67 -65.82,-11.45 -48.64,-77.27 11.44,-77.27 11.44,2.87 24.32,5.73 37.19,7.16l1.44 0c30.04,4.29 61.51,5.73 91.56,2.86 31.48,-1.44 61.52,-8.58 90.14,-17.17 82.97,-28.61 144.5,-85.83 144.5,-174.54l0 -204.58 0 0c0,-38.64 -11.45,-71.53 -31.49,-98.72l50.08 -52.93 -54.37 -47.21 -50.07 52.93zm251.8 -210.31l81.54 0 0 -127.33 -81.54 0 0 127.33zm4.29 875.57l72.96 0 0 -701.03 -72.96 0 0 701.03zm653.8 -420.62c-141.63,-27.17 -283.26,-18.6 -371.97,41.5 -145.93,95.84 -123.03,330.47 71.54,383.41 34.33,8.59 70.1,14.3 104.43,14.3 70.11,0 147.36,-14.3 208.88,-74.38 21.46,44.34 68.68,61.51 128.76,57.22l0 -64.38c-35.77,0 -70.1,-14.3 -70.1,-67.24l0 -376.26c0,-38.63 -7.16,-74.4 -30.05,-107.31 -94.42,-130.19 -400.58,-123.04 -484.99,12.87l61.51 38.63c30.06,-44.35 80.12,-65.8 131.62,-74.39 40.07,-5.72 74.4,-7.15 113.03,0 51.5,10.01 95.86,31.47 120.17,65.82 12.88,17.15 17.17,37.19 17.17,58.65l0 91.56zm0 246.08c0,91.56 -121.6,120.17 -196,120.17 -30.04,0 -58.66,-2.86 -84.41,-10.01 -137.34,-38.63 -145.92,-193.14 -45.77,-263.24 81.54,-57.23 220.31,-54.37 326.18,-27.19l0 180.27zm1208.92 -645.23c0,-130.2 -147.36,-194.58 -299.02,-194.58 -151.64,0 -303.3,64.38 -303.3,194.58 0,48.64 0,104.43 0,155.94 0,74.39 52.93,141.64 144.5,157.38 -82.97,12.87 -163.09,62.95 -163.09,154.5 0,51.51 0,118.75 0,168.83 0,130.18 170.25,194.57 321.89,194.57 151.66,0 321.9,-64.39 321.9,-194.57l0 -293.29 103.01 0 0 -62.95 -424.91 0c-115.88,0 -230.33,-34.34 -230.33,-124.47 0,-51.51 0,-107.3 0,-155.94 0,-82.99 114.45,-124.47 230.33,-124.47 114.46,0 230.35,41.48 230.35,124.47l0 77.25 68.67 0 0 -77.25zm-48.65 343.36l0 293.29c0,81.54 -135.91,123.03 -250.37,123.03 -115.88,0 -250.37,-41.49 -250.37,-123.03 0,-50.08 0,-117.32 0,-168.83 0,-107.29 171.69,-124.46 250.37,-124.46l250.37 0zm642.38 -526.49c0,334.78 0,668.12 0,1002.9l71.52 0 0 -1002.9 -71.52 0zm772.57 1002.9l0 -510.75c0,-140.2 -135.93,-203.15 -268.98,-201.73 -67.24,0 -141.63,17.17 -194.57,74.4l0 -65.81 -72.96 0 0 703.89 72.96 0 0 -500.73c0,-97.29 98.72,-141.64 196.01,-141.64 97.28,0 194.56,45.78 194.56,130.19l0 512.18 72.98 0zm506.45 -78.69c-50.08,17.17 -104.44,20.03 -157.37,11.45 -74.4,-12.88 -138.78,-54.37 -138.78,-118.75l0 -331.91c0,-57.22 48.64,-93 110.16,-110.16 27.18,-7.16 55.79,-11.45 85.84,-11.45 30.04,0 58.66,4.29 85.84,11.45 61.52,17.16 110.16,54.36 110.16,110.16l0 0 0 331.91c0,51.5 -41.48,88.7 -95.85,107.3zm167.38 -439.21l0 0c0,-94.42 -71.53,-154.51 -163.09,-178.84 -32.91,-10.02 -68.67,-14.31 -104.44,-14.31 -35.76,0 -70.1,4.29 -104.43,14.31 -91.57,24.33 -163.11,84.42 -163.11,178.84l0 331.91c0,107.3 91.57,168.82 198.87,187.42 64.38,10.02 130.19,7.15 191.71,-12.88 82.98,-28.61 144.49,-85.84 144.49,-174.54l0 -331.91zm416.32 525.06l193.14 -183.14c47.22,-45.77 55.79,-72.96 55.79,-121.6l0 -403.45 -71.52 0 0 403.45c0,30.04 -4.29,41.48 -25.75,61.52l-165.96 157.37 -165.97 -157.37c-21.46,-20.04 -24.31,-31.48 -24.31,-61.52l0 -403.45 -72.96 0 0 403.45c0,48.64 8.58,75.83 55.79,121.6l193.14 183.14 28.61 0zm808.33 -427.78c-141.63,-27.17 -283.26,-18.6 -371.97,41.5 -145.93,95.84 -123.03,330.47 71.54,383.41 34.33,8.59 70.1,14.3 104.43,14.3 70.11,0 147.36,-14.3 208.88,-74.38 21.46,44.34 68.68,61.51 128.76,57.22l0 -64.38c-35.77,0 -70.1,-14.3 -70.1,-67.24l0 -376.26c0,-38.63 -7.16,-74.4 -30.05,-107.31 -94.42,-130.19 -400.58,-123.04 -484.99,12.87l61.51 38.63c30.06,-44.35 80.12,-65.8 131.62,-74.39 40.07,-5.72 74.4,-7.15 113.03,0 51.5,10.01 95.86,31.47 120.17,65.82 12.88,17.15 17.17,37.19 17.17,58.65l0 91.56zm0 246.08c0,91.56 -121.6,120.17 -196,120.17 -30.04,0 -58.66,-2.86 -84.41,-10.01 -137.34,-38.63 -145.92,-193.14 -45.77,-263.24 81.54,-57.23 220.31,-54.37 326.18,-27.19l0 180.27zm432.06 258.95c37.2,1.43 127.33,-4.29 127.33,41.48 0,45.79 -97.29,50.08 -130.19,17.18l-38.63 30.04c54.37,71.53 233.2,47.21 237.49,-45.78 1.43,-37.2 -35.76,-82.98 -127.33,-80.12l17.17 -38.63c32.91,-1.42 64.38,-5.73 95.86,-12.87l0 -1.44c91.56,-24.31 163.09,-84.4 163.09,-178.83l-71.53 0c0,57.23 -48.64,94.43 -110.17,111.6l-1.42 0c-52.93,14.3 -117.32,14.3 -170.25,0 -54.37,-15.74 -110.16,-50.08 -110.16,-114.46l0 -326.19c0,-64.38 57.22,-98.71 110.16,-113.03 27.18,-7.14 55.79,-11.44 85.84,-11.44 28.61,0 58.65,4.3 84.41,11.44 62.95,17.17 111.59,54.37 111.59,111.6l71.53 0c0,-95.86 -71.53,-154.52 -163.09,-180.27 -34.34,-8.58 -70.11,-14.3 -104.44,-14.3 -35.77,0 -71.54,5.72 -104.45,14.3 -87.26,24.33 -163.09,82.99 -163.09,180.27l0 327.62c0,98.72 74.4,158.8 163.09,183.13 20.03,4.29 40.07,8.58 61.53,10.01l-34.34 71.53 0 7.16zm899.89 -505.03c-141.64,-27.17 -283.27,-18.6 -371.98,41.5 -145.92,95.84 -123.03,330.47 71.54,383.41 34.33,8.59 70.11,14.3 104.43,14.3 70.11,0 147.36,-14.3 208.89,-74.38 21.46,44.34 68.67,61.51 128.75,57.22l0 -64.38c-35.76,0 -70.09,-14.3 -70.09,-67.24l0 -376.26c0,-38.63 -7.16,-74.4 -30.06,-107.31 -94.42,-130.19 -400.58,-123.04 -484.99,12.87l61.52 38.63c30.05,-44.35 80.12,-65.8 131.62,-74.39 40.06,-5.72 74.39,-7.15 113.02,0 51.5,10.01 95.86,31.47 120.18,65.82 12.88,17.15 17.17,37.19 17.17,58.65l0 91.56zm0 246.08c0,91.56 -121.61,120.17 -196.01,120.17 -30.04,0 -58.65,-2.86 -84.4,-10.01 -137.35,-38.63 -145.93,-193.14 -45.78,-263.24 81.54,-57.23 220.32,-54.37 326.19,-27.19l0 180.27zm-277.56 -659.55c4.3,-21.46 24.33,-38.62 45.79,-40.05 32.91,-1.43 57.23,47.21 107.3,44.36 40.06,-2.87 68.68,-28.62 75.82,-67.25l-44.34 -18.6c-4.3,18.6 -14.32,30.04 -32.91,31.48 -27.18,2.85 -58.66,-48.65 -111.59,-42.92 -38.63,2.85 -77.25,40.05 -84.41,78.68l44.34 14.3zm885.59 755.4c-50.08,17.17 -104.44,20.03 -157.37,11.45 -74.4,-12.88 -138.78,-54.37 -138.78,-118.75l0 -331.91c0,-57.22 48.64,-93 110.16,-110.16 27.18,-7.16 55.79,-11.45 85.84,-11.45 30.04,0 58.66,4.29 85.84,11.45 61.52,17.16 110.16,54.36 110.16,110.16l0 0 0 331.91c0,51.5 -41.48,88.7 -95.85,107.3zm167.38 -439.21l0 0c0,-94.42 -71.53,-154.51 -163.09,-178.84 -32.91,-10.02 -68.67,-14.31 -104.44,-14.31 -35.76,0 -70.1,4.29 -104.43,14.31 -91.57,24.33 -163.11,84.42 -163.11,178.84l0 331.91c0,107.3 91.57,168.82 198.87,187.42 64.38,10.02 130.19,7.15 191.71,-12.88 82.98,-28.61 144.49,-85.84 144.49,-174.54l0 -331.91z"/>
   <circle class="fil12" cx="16939.56" cy="5505.11" r="227.59"/>
   <circle class="fil13" cx="15031.68" cy="5678.18" r="127.47"/>
   <path class="fil6" d="M3911.92 8813.69c-338.44,-437.06 -555.22,-830.32 -609.49,-1165.07l-718.55 2023.35 1062.53 0 265.51 -858.28z"/>
  </g>
 </g>
</svg>
